<svg xmlns="http://www.w3.org/2000/svg" viewBox="0 0 579.44 365.67"><defs><style>.cls-1,.cls-2{fill:#fff;}.cls-1{stroke:#fff;}.cls-1,.cls-10,.cls-8,.cls-9{stroke-miterlimit:10;}.cls-2{font-size:34.85px;font-family:MrsEavesXLSerifNarOT-Reg, Mrs Eaves XL Serif Nar OT;}.cls-3{letter-spacing:-0.02em;}.cls-4{letter-spacing:-0.04em;}.cls-5{letter-spacing:0em;}.cls-6{fill:#f4e97f;}.cls-7{fill:#ffff8a;}.cls-10,.cls-8,.cls-9{fill:none;}.cls-8{stroke:#ffff8a;stroke-width:5px;}.cls-10,.cls-9{stroke:#6e570b;}.cls-9{stroke-width:6px;}.cls-10{stroke-width:7px;}.cls-11{fill:#f4dea2;}.cls-12{fill:#e0d373;}.cls-13{fill:#e8ca66;}</style></defs><g id="Layer_2" data-name="Layer 2"><g id="Layer_20" data-name="Layer 20"><path class="cls-1" d="M331.93,180.66c-9.47,0-11.08-7-11.08-7s11.66-116.12,9.43-126.88S316,32,309.63,31.28c-23.62-2.47-28,2.65-39.18,11.87-10.6,8.73-11.75,21.77-8,25.95,11,12.24,21.57-2.5,17.82-8.35-1.51-2.36-5.16-6.29-5.54-9.76S279,36.53,295.33,36.53A20.39,20.39,0,0,1,315.45,51s-1.14,36.48-2.05,37.6c-2.82,3.49-14.39,10.34-39,25.43-19.1,11.69-26,32.13-26,32.13s4.87-99,5.29-103.48S260,36.11,260,36.11l6.57-.3.23-5.1L232.75,29l.37,3.82s-2.24-.07,5.25.86,8.84,6.76,8.84,6.76l-5.8,93.43L215.33,31l-43.47-2.21v2.76a16.61,16.61,0,0,1,7.31.55C183,33.35,183.72,36,183.72,36l-2.34,98.4L150.19,29.1,126.31,28s-.4,2.21.16,2.25c7,.48,8.87,5.69,8.87,5.69s-.42,119.69-3,127.44-9.54,3.34-9.54,3.34,4.37-113.81,1.91-121.41c-9.43-29.15-39.57-17.48-39.57-17.48S66.4,34.05,58.75,51.35c-1.33,3-1.39,14.59,3.58,17.46,12.83,7.4,16.36-2.77,15.1-5.59-1.94-4.32-8.23-9.6-7.4-17.43S81.78,32,91.48,31.65a21.26,21.26,0,0,1,19.39,10.49s1,36.26-.48,43.38S73.9,109.31,63,117.07c-20.87,14.77-15.21,46.31,13.45,55.65,19.51,6.35,32.08-4.73,32.08-4.73l.16,7,44.62.88s2.55-3.44.6-3.33c-13.71.71-13.43-9.6-13.43-9.6l.68-105.12,44.71,126,3-.37,1.12-4.76,25.86.18s1.65-3.54.1-3.54c-11.71,0-12.1-8.17-12.1-8.17l2.68-105.78,37.71,124s2.9-27.79,4.73-23.73c11,24.43,24.65,23.2,37.23,23.2,11.26-3.18,18.25-13.37,18.64-11.19,1.32,7.57-3.25,7.56-3.25,7.56l.52,2.9,30,.05S333.08,180.66,331.93,180.66Zm-222.51-17.2s-28.62,14-40.12-19.56c-3-8.72,1.86-19.13,2.8-20.08,13.18-13.18,38.14-28.68,38.14-28.68Zm86.49,6.48-6.41,3.33,3.59-135.09s.66-1.15,4-1.15a4.39,4.39,0,0,1,4.23,2.82Zm110.22-6.19s-10.6,10.1-24,10.1c-10.24,0-16.77-11.1-17-12.72-2.55-15.16-1.43-25.87,15.33-40,15.85-13.34,32.93-25.08,32.93-25.08Z"/><text class="cls-2" transform="translate(345.29 75.69)">E<tspan class="cls-3" x="18.02" y="0">S</tspan><tspan x="33.45" y="0">T</tspan><tspan class="cls-4" x="51.16" y="0">D</tspan><tspan class="cls-5" x="71.86" y="0">’</tspan><tspan x="0" y="41.82">1989</tspan></text><path class="cls-6" d="M547.69,35C475,228.79,200.57,319.13,35.7,223.05,236.08,248.65,275.83,283.26,506,68.65,523.69,52.13,537.71,37.23,547.69,35Z"/><path class="cls-7" d="M561.91,49.77c-.82-1.36-1.68-2.74-2.57-4.09-.3-.48-.62-1-.94-1.43l.75-2.66c.17.35.35.72.51,1.1A42.69,42.69,0,0,1,561.91,49.77Z"/><path class="cls-8" d="M561.91,49.77c-1.11-1.85-2.3-3.71-3.51-5.52l.75-2.66a38.57,38.57,0,0,1,2.76,8.18Z"/><path class="cls-9" d="M28.34,221.4c-2.86,1.86-5.81,2.08-8.69,3.23,2.05-2.17,4.46-5.14,6.79-6.53-2.86,1.05-5.8,2.51-8.68,2.65,3.74-2.19,7.93-3.24,11.52-6"/><path class="cls-10" d="M552.15,28.82c1.67-3.69,3.79-7.61,5.68-11-.76,6.78-4.13,12.88-4.89,19.62,4.65-4.65,8.35-10.52,13.21-14.93-3.71,6.7-5.26,14.61-7.75,21.71,6.44-7,13.89-17,15.07-26.54a42.15,42.15,0,0,1-8.37,3.48c1.77-4.49,4.69-8.5,4.28-13.61-3.36-.23-5.92,1.74-9.16,3.08-.3-3.19,1-6.85,1.41-10.23"/><path class="cls-7" d="M558.4,44.25c.32.47.64,1,.94,1.43C532.27,290.6,165.06,401.74,22.52,228.3c.09-3.1,1.12-5.42,3.48-6.47,3.27.41,6.52.81,9.7,1.22C200.57,319.13,475,228.79,547.69,35c4.75-1.06,8.59.74,11.46,6.6Z"/><path class="cls-11" d="M559.66,42.69a42.69,42.69,0,0,1,2.25,7.08c-.82-1.36-1.68-2.74-2.57-4.09-.3-.48-.62-1-.94-1.43l.75-2.66.9-3.16C559.93,39.85,559.81,41.27,559.66,42.69Z"/><path class="cls-12" d="M561.91,49.77a120.51,120.51,0,0,1,2.62,18.67,202.78,202.78,0,0,1-1.06,53.85C547.26,227.92,450.63,312.62,359,345.35c-87.56,31.28-183.86,28.71-262.17-23.69a273.37,273.37,0,0,1-56.29-50.4c-3.31-4.9-18.4-30.36-18-43C165.06,401.74,532.27,290.6,559.34,45.68,560.23,47,561.09,48.41,561.91,49.77Z"/><path class="cls-13" d="M560.05,38.43c-.12,1.42-.24,2.84-.39,4.26-.09,1-.2,2-.32,3-.3-.48-.62-1-.94-1.43l.75-2.66Z"/><path d="M0,237c.29,0,.58-.5.87-.5-.3,0-.59.5-.87.5Z"/><path d="M120.49,324.62c9.6,2.47,10.69.55,12.38-12l5.48-40.74c1.68-12.53,1.14-14.74-8.46-17.21l.36-2.63L157.19,259c14.69,3.77,21.2,14.13,19.8,24.53a16.23,16.23,0,0,1-11.11,13.23c8.5,5.29,12.77,14.43,11.56,23.45-1.57,11.66-11.05,18.95-27.12,14.82l-30.19-7.76Zm30.88,6.13c10.06,2.58,15.26-4,16.47-13s-1.91-17.87-12-20.45l-11.1-2.86-2.55,18.93c-1.68,12.53-1.14,14.74,8.46,17.21Zm1.39-38.8c8.67,2.23,13.58-3.12,14.63-10.89s-1.53-15.31-10.21-17.54l-8-2-3.84,28.58Z"/><path d="M194,326c-2.08,7.84-.5,11.11,9.2,13.11l.19,3.13-26.29-5.41-.19-3.14c8.53,1.76,9.92-.17,12.55-10.24l18.23-70,2.69.55,27.22,79.36c3.92,11.57,5.33,13.93,13.86,15.68l.18,3.14-31.31-6.45-.19-3.13c9.7,2,10.81-.73,7.86-9.6l-5.89-17.43-24.18-5ZM207.8,272.3l-8.41,33.22,20.8,4.29Z"/><path d="M253.53,272l18.3,56.18c5.56,17.07,7.45,19.88,17.24,19l1.17,3.59L264,353.17l-1.17-3.59c9.8-.9,9.68-3.88,4.12-20.95l-18.08-55.49c-5.56-17.07-7.28-19.73-17.07-18.83l-1.17-3.58,15.46-1.43,64.56,73.55-17.52-53.78c-5.56-17.07-7.28-19.73-17.08-18.83l-1.16-3.59,26.2-2.4,1.16,3.58c-9.79.9-9.85,3.72-4.28,20.79l26.42,81.11L322,350Z"/><path d="M346.44,320.87c1.58,10.43,4.26,13.33,13.13,9.86L361,334.3l-24,9.4-1.48-3.57c7.8-3.05,8.14-6.14,6.08-19.54L327.29,227.5l2.46-1,55.87,76.83c8.11,11.24,10.27,13.16,18.06,10.11l1.48,3.57-28.63,11.19-1.47-3.56c8.86-3.47,8.64-7.33,2.47-16l-12.2-16.94-22.11,8.65ZM335.3,249.63l7,44,19-7.43Z"/><path d="M383.29,231.85l29,50.39c8.8,15.31,11,17.28,18.37,10.67l1.85,3.21-19.7,17.69-1.84-3.22c7.36-6.61,6.48-9.77-2.32-25.09L380,235.72c-8.8-15.31-10.83-17.2-18.2-10.59L360,221.91l11.63-10.43L441,254.1l-27.73-48.25c-8.8-15.31-10.83-17.21-18.2-10.59L393.22,192l19.7-17.69,1.85,3.22c-7.37,6.61-6.67,9.7,2.14,25l41.81,72.74L456.86,277Z"/><path d="M470.39,243c3.27,10.33,6.12,11.89,13.17,3l1.92,3-19.1,24-1.92-3c6.19-7.8,5.92-11.32,1.7-24.57L436.8,153.51l1.95-2.45,62.39,50.4c9.06,7.41,11.28,8.23,17.48.44l1.93,3L497.79,233.5l-1.92-3c7-8.86,6.14-12.88-.77-18.62l-13.65-11.18-17.57,22.1Zm-22.62-70.25,14.08,43.37,15.11-19Z"/><path d="M503.64,182.72l1-2.19c6.33,3.38,20.59,7.59,27.72-7.31,3.72-7.79,1.53-15.81-4.74-19.87-5.85-3.78-12-1.47-19.24,3.62l-9,6.51c-6.75,5-14.8,5.78-22.74.63a22,22,0,0,1-7.86-27.62c2.83-5.92,6.49-7.86,10.36-9.66a14.19,14.19,0,0,0-2.86-6l.94-2,20.16,13.06-1.05,2.19c-8.72-4.64-18.5-4.8-23.42,5.5a12.52,12.52,0,0,0,4.47,15.82c5.44,3.52,9.88,2.23,19.14-4.26l8.95-6.4c8-5.59,16.11-4.5,21.85-.78,11.39,7.38,14.72,20.73,9.32,32-4,8.33-9.89,11.25-12.87,12.91a14.62,14.62,0,0,0,3,6.26l-.94,2Z"/></g></g></svg>