<?xml version="1.0" encoding="utf-8"?>
<!-- Generator: Adobe Illustrator 26.0.1, SVG Export Plug-In . SVG Version: 6.00 Build 0)  -->
<svg version="1.1" id="Layer_1" xmlns="http://www.w3.org/2000/svg" xmlns:xlink="http://www.w3.org/1999/xlink" x="0px" y="0px"
	 viewBox="0 0 584.5 370.4" style="enable-background:new 0 0 584.5 370.4;" xml:space="preserve">
<style type="text/css">
	.st0{display:none;fill:#FFFF8A;}
	.st1{fill:none;stroke:#6E570B;stroke-width:10;stroke-miterlimit:10;}
	.st2{fill:#F4E97F;}
	.st3{fill:#FFFF8A;}
	.st4{display:none;fill:none;stroke:#6E570B;stroke-width:6;stroke-miterlimit:10;}
	.st5{display:none;fill:none;stroke:#6E570B;stroke-width:7;stroke-miterlimit:10;}
	.st6{fill:#E0D373;}
	.st7{stroke:#000000;stroke-miterlimit:10;}
	.st8{font-family:'MrsEavesXLSerifNarOT-Reg';}
	.st9{font-size:34.85px;}
	.st10{letter-spacing:-1;}
</style>
<g id="Layer_2_00000145780538621195148170000014075580429384366731_">
	<g id="Layer_5">
		<path class="st0" d="M352.8,352c-109.4,37.2-231,19.8-311.9-83c-3.9-6.3-25-45.4-13.1-50.5C233,249.6,268.7,290.3,504.6,74.7
			c34.1-31.2,54.9-56.7,57.7,1.2C573.6,208.4,459,315.9,352.8,352z"/>
		<path class="st1" d="M30.2,218c-2.9,1.8-5.8,2-8.6,3.1c2.1-2.1,4.5-5.1,6.9-6.5c-2.9,1-5.8,2.4-8.6,2.5c3.7-2.1,7.9-3.1,11.5-5.8"
			/>
		<path class="st1" d="M551.2,35.4c1.7-3.7,3.9-7.6,5.9-11c-0.9,6.9-4.4,13-5.3,19.8c4.7-4.6,8.5-10.5,13.4-14.8
			c-3.8,6.7-5.6,14.7-8.2,21.9c6.5-6.9,14.1-16.9,15.5-26.6c-2.6,1.4-5.5,2.5-8.3,3.3c1.9-4.5,4.8-8.5,4.6-13.7
			c-3.3-0.3-5.9,1.6-9.1,2.9c-0.2-3.2,1.2-6.9,1.7-10.4"/>
		<g id="Layer_2_00000102543032367939135850000007985488604238309052_">
			<g id="Layer_20">
				<path class="st2" d="M548.4,51.8c-83,188.3-359.9,269.1-517.7,169.9c196.9,31,234.4,66.1,474.5-138
					C523.7,67.9,538.4,53.7,548.4,51.8z"/>
				<path class="st3" d="M561.6,66.7c-0.7-1.4-1.5-2.7-2.3-4.1c-0.3-0.5-0.6-1-0.8-1.4l0.9-2.6c0.1,0.4,0.3,0.7,0.4,1.1
					C560.6,62,561.2,64.3,561.6,66.7z"/>
				<path class="st4" d="M23.5,219.8c-2.9,1.7-5.9,1.9-8.8,2.9c2.2-2,4.7-4.9,7.1-6.3c-2.9,1-5.9,2.3-8.8,2.3c3.8-2,8-2.9,11.8-5.6"
					/>
				<path class="st5" d="M553.1,45.9c1.9-3.6,4.2-7.4,6.3-10.6c-1.1,6.6-4.8,12.5-6,19.1c4.9-4.4,8.9-10.1,13.9-14.3
					c-4.1,6.5-6,14.2-8.9,21.1c6.8-6.7,14.7-16.3,16.4-25.7c-2.7,1.4-5.6,2.4-8.5,3.2c2-4.4,5.1-8.2,5-13.2c-3.3-0.3-6,1.5-9.3,2.7
					c-0.1-3.1,1.4-6.7,2-10"/>
				<path class="st3" d="M558.5,61.2c0.3,0.5,0.6,1,0.8,1.4C518.6,302.5,148.7,401,17.4,226.5c0.3-3,1.4-5.3,3.8-6.3l9.5,1.5
					c157.8,99.2,434.6,18.4,517.7-169.9c4.8-0.9,8.5,1,11,6.8L558.5,61.2z"/>
				<path class="st6" d="M561.6,66.7c1,6.1,1.6,12.2,1.6,18.4c1,17.7-0.4,35.5-4.2,52.9C537,241.3,436.5,321.7,344,351.2
					c-88.5,28.2-183.7,22.9-258.3-30.9c-20.1-14.5-37.8-31.7-52.9-51.1c-3-4.9-16.5-30.4-15.4-42.7c131.3,174.5,501.2,76,542-163.8
					C560.1,64,560.9,65.4,561.6,66.7z"/>
			</g>
		</g>
		<path d="M105.5,315.5c9.5,2.9,10.7,1,12.8-11.5l7.1-40.5c2.2-12.5,1.7-14.7-7.8-17.5l0.5-2.6l26.7,8c14.5,4.4,20.6,15,18.8,25.3
			c-1.1,6.1-5.6,11.1-11.6,12.8c8.3,5.6,12.2,14.9,10.6,23.9c-2,11.6-11.8,18.5-27.7,13.7l-29.8-9L105.5,315.5z M136.1,322.8
			c10,3,15.4-3.4,17-12.4s-1.2-17.9-11.1-20.9l-11-3.3l-3.3,18.8c-2.2,12.5-1.7,14.7,7.8,17.5L136.1,322.8z M139.1,284.1
			c8.6,2.6,13.7-2.6,15.1-10.3s-0.9-15.4-9.5-17.9l-7.9-2.4l-5,28.4L139.1,284.1z"/>
		<path d="M179,319.7c-2.4,7.7-0.9,11.1,8.7,13.5l0.1,3.1l-26.1-6.5l-0.1-3.1c8.4,2.1,9.9,0.2,12.9-9.7l21-69.2l2.7,0.7l24,80.4
			c3.4,11.7,4.8,14.1,13.2,16.2l0.1,3.1l-31-7.7l-0.1-3.1c9.6,2.4,10.8-0.3,8.2-9.3l-5.2-17.7l-24-5.9L179,319.7z M194.9,266.7
			l-9.7,32.9l20.6,5.1L194.9,266.7z"/>
		<path d="M240.6,268.2l16,56.9c4.9,17.3,6.7,20.2,16.5,19.7l1,3.6l-26.3,1.4l-1-3.6c9.8-0.5,9.8-3.5,5-20.8l-15.9-56.2
			c-4.9-17.3-6.5-20-16.3-19.5l-1-3.6l15.5-0.8l61.6,76.1l-15.4-54.4c-4.9-17.3-6.5-20-16.3-19.5l-1-3.6l26.3-1.4l1,3.6
			c-9.8,0.5-10,3.3-5.1,20.6l23.2,82.1l-2.5,0.1L240.6,268.2z"/>
		<path d="M331.4,320.7c1.2,10.5,3.7,13.5,12.7,10.4l1.3,3.6l-24.4,8.4l-1.3-3.6c7.9-2.7,8.4-5.8,6.9-19.3L316,226.7l2.5-0.9
			l52.8,79c7.6,11.5,9.7,13.6,17.6,10.8l1.3,3.6l-29,10l-1.3-3.6c9-3.1,8.9-7,3.1-15.9l-11.5-17.4l-22.4,7.8L331.4,320.7z
			 M323.2,249.1l5.2,44.3l19.3-6.7L323.2,249.1z"/>
		<path d="M371.8,233.2l26.9,51.5c8.2,15.6,10.3,17.7,17.9,11.4l1.7,3.3L398,316.3l-1.7-3.3c7.6-6.3,6.9-9.5-1.3-25.2L368.4,237
			c-8.2-15.7-10.1-17.6-17.8-11.3l-1.7-3.3l12-10l67.7,45.4l-25.8-49.3c-8.2-15.7-10.1-17.6-17.8-11.3l-1.7-3.3l20.4-16.8l1.7,3.3
			c-7.6,6.3-7,9.4,1.1,25.1l38.9,74.4l-1.9,1.6L371.8,233.2z"/>
		<path d="M458.4,247.8c2.9,10.5,5.6,12.1,13,3.6l1.8,3.1l-20,23.2l-1.8-3.1c6.5-7.5,6.4-11.1,2.7-24.5l-25.7-93l2-2.4l60.3,52.8
			c8.8,7.8,10.9,8.7,17.5,1.1l1.8,3.1l-23.9,27.7l-1.8-3.1c7.4-8.6,6.7-12.6,0-18.6l-13.2-11.7l-18.5,21.3L458.4,247.8z
			 M438.6,176.7l12.4,43.9l15.9-18.4L438.6,176.7z"/>
		<path d="M494,189l1.1-2.1c6.2,3.6,20.3,8.4,28-6.2c4-7.6,2.2-15.7-3.9-20c-5.7-4-12-2-19.4,2.8l-9.3,6.2c-6.9,4.7-15,5.2-22.8-0.3
			c-8.9-6.4-11.7-18.2-6.8-27.9c3.1-5.8,6.8-7.6,10.7-9.2c-0.4-2.2-1.3-4.3-2.6-6.1l1-1.9l19.7,13.8l-1.1,2.1
			c-8.5-5-18.3-5.5-23.6,4.6c-2.9,5.5-1.2,12.4,3.8,16c5.3,3.7,9.8,2.6,19.3-3.5l9.2-6c8.2-5.3,16.3-3.9,21.9,0.1
			c11.1,7.8,13.9,21.3,8,32.4c-4.3,8.1-10.3,10.7-13.3,12.3c0.4,2.3,1.3,4.5,2.8,6.4l-1,1.9L494,189z"/>
		<path class="st7" d="M333.3,181.1c-9.5,0-11.1-7-11.1-7S333.8,58,331.6,47.2S317.4,32.4,311,31.7c-23.6-2.5-28,2.7-39.2,11.9
			c-10.6,8.7-11.8,21.8-8,26c11,12.2,21.6-2.5,17.8-8.3c-1.5-2.4-5.2-6.3-5.5-9.8s4.3-14.5,20.6-14.5c9.2-0.3,17.5,5.7,20.1,14.5
			c0,0-1.1,36.5-2,37.6c-2.8,3.5-14.4,10.3-39,25.4c-19.1,11.7-26,32.1-26,32.1s4.9-99,5.3-103.5s6.4-6.6,6.4-6.6l6.6-0.3l0.2-5.1
			l-34.2-1.7l0.4,3.8c0,0-2.2-0.1,5.3,0.9s8.8,6.8,8.8,6.8l-5.8,93.4L216.7,31.5l-43.5-2.2V32c2.5-0.4,5-0.2,7.3,0.5
			c3.8,1.2,4.6,3.9,4.6,3.9l-2.3,98.4L151.5,29.5l-23.9-1.1c0,0-0.4,2.2,0.2,2.2c7,0.5,8.9,5.7,8.9,5.7s-0.4,119.7-3,127.4
			s-9.5,3.3-9.5,3.3s4.4-113.8,1.9-121.4c-9.4-29.1-39.6-17.5-39.6-17.5s-18.7,6.2-26.4,23.5c-1.3,3-1.4,14.6,3.6,17.5
			c12.8,7.4,16.4-2.8,15.1-5.6c-1.9-4.3-8.2-9.6-7.4-17.4s11.8-13.8,21.5-14.1c7.9-0.4,15.4,3.6,19.4,10.5c0,0,1,36.3-0.5,43.4
			s-36.5,23.8-47.5,31.6c-20.9,14.8-15.2,46.3,13.5,55.7c19.5,6.4,32.1-4.7,32.1-4.7l0.2,7l44.6,0.9c0,0,2.6-3.4,0.6-3.3
			c-13.7,0.7-13.4-9.6-13.4-9.6l0.7-105.1l44.7,126l3-0.4l1.1-4.8l25.9,0.2c0,0,1.6-3.6,0.1-3.6c-11.7,0-12.1-8.2-12.1-8.2
			l2.7-105.8l37.7,124c0,0,2.9-27.8,4.7-23.7c11,24.4,24.7,23.2,37.2,23.2c11.3-3.2,18.3-13.4,18.6-11.2c1.3,7.6-3.2,7.6-3.2,7.6
			l0.5,2.9l30,0.1C333.4,184.6,334.4,181.1,333.3,181.1z M110.8,163.9c0,0-28.6,14.1-40.1-19.6c-3-8.7,1.9-19.1,2.8-20.1
			c13.2-13.2,38.1-28.7,38.1-28.7L110.8,163.9z M197.2,170.4l-6.4,3.3l3.6-135.1c0,0,0.7-1.2,4-1.2c1.9-0.1,3.6,1.1,4.2,2.8
			L197.2,170.4z M307.5,164.2c0,0-10.6,10.1-24,10.1c-10.2,0-16.8-11.1-17-12.7c-2.5-15.2-1.4-25.9,15.3-40
			c15.9-13.3,32.9-25.1,32.9-25.1L307.5,164.2z"/>
		<text transform="matrix(1 0 0 1 346.62 76.11)" class="st8 st9">E</text>
		<text transform="matrix(1 0 0 1 364.64 76.11)" class="st8 st9">S</text>
		<text transform="matrix(1 0 0 1 380.07 76.11)" class="st8 st9">T</text>
		<text transform="matrix(1 0 0 1 397.78 76.11)" class="st8 st9 st10">D</text>
		<text transform="matrix(1 0 0 1 418.48 76.11)" class="st8 st9">’</text>
		<text transform="matrix(1 0 0 1 346.62 117.9301)" class="st8 st9">1989</text>
	</g>
</g>
</svg>
