<?xml version="1.0" encoding="utf-8"?>
<!-- Generator: Adobe Illustrator 26.0.1, SVG Export Plug-In . SVG Version: 6.00 Build 0)  -->
<svg version="1.1" id="Layer_1" xmlns="http://www.w3.org/2000/svg" xmlns:xlink="http://www.w3.org/1999/xlink" x="0px" y="0px"
	 viewBox="0 0 451 196.2" style="enable-background:new 0 0 451 196.2;" xml:space="preserve">
<style type="text/css">
	.st0{fill:#F4E97F;}
	.st1{fill:#FFFF8A;}
	.st2{fill:none;stroke:#6E570B;stroke-width:6;stroke-miterlimit:10;}
	.st3{fill:none;stroke:#6E570B;stroke-width:7;stroke-miterlimit:10;}
	.st4{fill:#E0D373;}
</style>
<g id="Layer_2_00000102543032367939135850000007985488604238309052_">
	<g id="Layer_20">
		<path class="st0" d="M417.6,24.1C322.3,141.9,115.8,141.2,27.5,36.3c129,64.1,147.6,97.4,353.9,1.5
			C397.3,30.5,410.3,23.3,417.6,24.1z"/>
		<path class="st1" d="M423.6,37.7c-0.2-1.1-0.5-2.3-0.8-3.4c-0.1-0.4-0.2-0.8-0.3-1.2l1.1-1.7c0,0.3,0.1,0.6,0.1,0.9
			C423.9,34,423.8,35.8,423.6,37.7z"/>
		<path class="st2" d="M22.9,33.5c-2.4,0.6-4.4,0.1-6.6,0.2c1.9-1,4.2-2.5,6.1-3c-2.2,0.1-4.5,0.4-6.5-0.2c3-0.6,6.1-0.4,9.2-1.5"/>
		<path class="st3" d="M422,20.8c2-2.2,4.4-4.4,6.5-6.3c-2.1,4.5-5.9,8-8,12.5c4.2-2.1,8.1-5.4,12.5-7.3c-4.1,3.8-7,8.9-10.4,13.3
			c6-3.4,13.4-8.6,16.5-15c-2.1,0.4-4.3,0.6-6.5,0.5c2.3-2.7,5.2-4.8,6.1-8.5c-2.2-0.9-4.4-0.2-6.9,0c0.6-2.3,2.3-4.5,3.4-6.8"/>
		<path class="st1" d="M422.6,33c0.1,0.4,0.2,0.8,0.3,1.2C346.2,198.1,72.1,190.4,17.3,37c0.8-2.1,2-3.5,3.9-3.7l6.2,3.1
			C115.8,141.3,322.3,142,417.6,24.1c3.5,0.4,5.6,2.5,6.2,7.2L422.6,33z"/>
		<path class="st4" d="M423.6,37.7c-0.5,4.6-1.4,9.1-2.6,13.6c-2.9,12.9-7.5,25.4-13.6,37.2c-36.1,69.7-121.4,106.2-191,107.7
			c-66.5,1.5-130.9-22.6-171.2-77.1c-10.8-14.7-19.6-30.9-26-48c-1.1-4.2-5.2-25.3-1.9-34c54.8,153.5,328.9,161.2,405.5-2.7
			C423.1,35.4,423.4,36.5,423.6,37.7z"/>
	</g>
</g>
</svg>
