<svg xmlns="http://www.w3.org/2000/svg" viewBox="0 0 258.08 231.74"><defs><style>.cls-1{fill:#fffad9;}.cls-2{fill:#d9c8ad;stroke:#d9c8ad;stroke-width:3.01px;}.cls-2,.cls-3,.cls-8{stroke-miterlimit:10;}.cls-3,.cls-4{fill:#a67121;}.cls-3{stroke:#a67121;}.cls-5{fill:#9e5018;}.cls-6{fill:#e5c982;}.cls-7{fill:#d48853;}.cls-8{fill:#f5e838;stroke:#f8e700;}.cls-9{fill:#f8e700;}.cls-10{fill:#fff;}.cls-11{fill:#ffff8a;}.cls-12{fill:#c79754;}.cls-13{fill:none;stroke:#a0d16b;stroke-linecap:round;stroke-linejoin:round;stroke-width:3.36px;}</style></defs><g id="Layer_2" data-name="Layer 2"><g id="Layer_17" data-name="Layer 17"><path class="cls-1" d="M130.18,97.43s39-21,96.57,2l-1.66,35.86c8.37-15.58,32.23-13.67,31.5.35-2.16,41.83-35.8,61.58-35.8,61.58-.35,6.76-1.86,15.12-2.45,15.49-11.58,7.2-65,9.5-79.34-.34C139,212.4,126.38,123.26,130.18,97.43ZM248,145.94c3.28-23.88-20.66-4.19-22.13-1.35-1,1.92-5.41,38.69-3.68,41.7C223.67,185.69,245.87,161.19,248,145.94Z"/><path class="cls-1" d="M130.94,98.72c.35-.19.71-.36,1.07-.53s.87-.4,1.32-.59l.45-.2c-.32.14,0,0,.14-.05l1-.4a89.14,89.14,0,0,1,12.26-3.8,119.42,119.42,0,0,1,44.5-1.69,152.36,152.36,0,0,1,34.69,9.45l-1.1-1.45-1.45,31.42-.21,4.44a1.52,1.52,0,0,0,2.8.76,19.56,19.56,0,0,1,18.34-10.16,12.51,12.51,0,0,1,7.94,3.17c2.52,2.47,2.54,5.58,2.27,8.89a76.61,76.61,0,0,1-20.29,45.55,88.46,88.46,0,0,1-6.35,6.2c-1.68,1.47-3.23,2.72-4.86,3.92-1,.71-1.95,1.39-3,2a4.21,4.21,0,0,0-.45.28c-1,.76-.78,2.18-.87,3.32-.13,1.5-.28,3-.48,4.51a64.5,64.5,0,0,1-1.16,6.76c-.08.33-.18.65-.27,1s-.14.38,0,.21c.29-.38.17-.16-.15,0l-.68.35a35.17,35.17,0,0,1-7.08,2.3,126.21,126.21,0,0,1-21.74,2.8,176.51,176.51,0,0,1-25-.29c-6.58-.58-13.59-1.42-19.7-4.08a20,20,0,0,1-3.15-1.72l.69.9c-.45-3.18-.78-5.66-1.18-8.72q-1.48-11.31-2.81-22.65c-1.14-9.73-2.19-19.48-3.09-29.23s-1.68-19.47-2.11-29.23a155.11,155.11,0,0,1,.17-22.61c0-.32.07-.63.1-1,.06-.49,0-.3.11-.78.27-1.89-2.62-2.71-2.9-.8a109.59,109.59,0,0,0-.72,17.84c.17,8,.67,16,1.28,24,1.29,16.7,3.11,33.36,5.14,50q1.06,8.63,2.21,17.23.33,2.53.69,5.07c.1.73.06,1.71.61,2.28a11.63,11.63,0,0,0,3.71,2.06,37.89,37.89,0,0,0,4.69,1.66,76.54,76.54,0,0,0,11.23,2.18,161.29,161.29,0,0,0,27,1,140.25,140.25,0,0,0,24.69-2.85,41,41,0,0,0,8.25-2.61c1.18-.54,2.12-1,2.56-2.31a35,35,0,0,0,1.29-6.42c.43-2.95.77-5.91.93-8.89l-.74,1.3a58.69,58.69,0,0,0,7.91-5.87,85,85,0,0,0,15.39-17.24,77.75,77.75,0,0,0,12-29A82.74,82.74,0,0,0,258,137.6a15.26,15.26,0,0,0-.54-6.55,12.5,12.5,0,0,0-8.07-7.27c-9.72-3.22-20.79,2-25.56,10.79l2.79.75L228,103.9l.21-4.44A1.55,1.55,0,0,0,227.14,98c-18.46-7.35-38.33-11.5-58.25-10.76a106.75,106.75,0,0,0-33.74,6.4,47.63,47.63,0,0,0-5.73,2.48C127.72,97.05,129.24,99.64,130.94,98.72Z"/><path class="cls-1" d="M249.46,145.94c.44-3.33.77-7.42-1.14-10.39a6.32,6.32,0,0,0-6.12-2.74c-5.33.5-10.37,4.18-14.32,7.54a13.38,13.38,0,0,0-3.37,3.55c-.74,1.44-.8,3.41-1,5-1,6.84-1.81,13.74-2.44,20.63-.33,3.7-.64,7.41-.75,11.12-.05,1.95-.39,4.63.57,6.43a1.55,1.55,0,0,0,2.05.54c1.23-.54,2.34-2.09,3.22-3,2.07-2.23,4-4.56,5.95-6.93a115.41,115.41,0,0,0,13.36-19.95,37.75,37.75,0,0,0,4-11.34,1.57,1.57,0,0,0-1-1.85,1.52,1.52,0,0,0-1.85,1c-1,7.15-5.11,13.8-9,19.71a137.15,137.15,0,0,1-12.79,16.44c-.75.82-1.51,1.64-2.31,2.43l-.8.75c-.37.35.21-.05-.19.13l2.05.53c-.14-.26.09.39,0,.05,0-.12-.06-.25-.09-.37-.09-.38,0,0,0-.17s0-.37-.05-.56c-.07-1-.07-2.08-.05-3.12.06-3,.28-6,.52-8.92.54-6.64,1.26-13.28,2.17-19.88.29-2.12.57-4.26,1-6.36,0-.27.13-.54.18-.81.12-.57.05.14,0-.13a.93.93,0,0,1,.18-.26c-.36.38,0,0,.08-.08.24-.27.49-.54.75-.79a32.6,32.6,0,0,1,11.56-7.69,9.21,9.21,0,0,1,3.35-.67,2.85,2.85,0,0,1,1.27.21,3.77,3.77,0,0,1,.9.54,3.35,3.35,0,0,1,.85,1.25,8.82,8.82,0,0,1,.5,1.82,21.8,21.8,0,0,1-.16,6.35c-.11.81.77,1.49,1.5,1.5A1.54,1.54,0,0,0,249.46,145.94Z"/><ellipse class="cls-2" cx="175.95" cy="100.24" rx="32" ry="4.75"/><path class="cls-3" d="M174.15,106.9c-.33,0,9.57,2.8,9.54,3-.83,6.28-1.33,25.61-2.12,34.23-.17,1.85.23,4.41,2.08,4.51,9.56-5.56,0-28.34,14.61-32,1.35,4.53-.39,28,8.44,17.26,2.7-5.66-2.49-15.46,5.19-18.33,8.28-.2,8.28,6.41,10.46,8.28,4.64,1.2,5.78-22.15,5.73-25.62-1.9-.5-5.08-1.61-14.07-4.44-1.47-.46-10,2.23-7.79,2.74,2.44.58,3.67,4.1,3.46,4.51C207.52,105.45,189,106.9,174.15,106.9Z"/><path class="cls-4" d="M158.28,143.54c1.52,35.53.6,26.7.6,73.71a5.84,5.84,0,0,0-4.58-.17c-1.44.57,3.17,6,3.17,6s-9.19-3-11.31-1.5c-2.9,2-1.65,5.65-1.65,5.65s-14.21-5.08-18.54-3.9c-5,1.36-5.47,6.69-5.47,6.69-1-16.8-1.93-53.49-.19-60.9-2-.91-4-1.94-5-3.85-3.91-7.51,7.56-10.07,11.28-10.12,5.36-.07,6.64-3.52,8.33-4.25,3.71-1.61,3.56,2.68,3.76.06.17-2.17,2.69-3.33,4.86-3.5,5.71-.44,3.45-2,9.1-1.12-1.83-2.4,2-2,2.89-3.35C155.82,142.48,156.25,143.23,158.28,143.54Z"/><path class="cls-4" d="M156.78,143.54c.39,9.09.79,18.19.86,27.29.06,7.46-.1,14.91-.16,22.37q-.1,12-.1,24.05l2.26-1.3c-2.2-1.12-8.09-1.35-7,2.5.61,2.1,2.35,4,3.74,5.66l1.46-2.5a33.21,33.21,0,0,0-9.63-2,5,5,0,0,0-4.85,2.88,7,7,0,0,0-.33,5.07l1.85-1.85a99.08,99.08,0,0,0-10.39-3.09c-4.66-1.1-10-2.16-13.41,2.14A10,10,0,0,0,119,230h3c-.52-8.58-.8-17.17-1-25.75-.19-8.77-.33-17.55,0-26.32a48.89,48.89,0,0,1,.74-8.43,1.52,1.52,0,0,0-.69-1.69c-2.21-1-4.71-2.29-5.06-5a3.6,3.6,0,0,1,1.52-3.26c2.22-1.84,5.61-2.69,8.37-2.89a12.62,12.62,0,0,0,6.06-1.47c1.21-.74,2.29-2.15,3.31-2.8a2.48,2.48,0,0,1,1.36-.38.52.52,0,0,1,.32.23c-.1-.11.4.54.42.56a1.56,1.56,0,0,0,2.24.05c.61-.62.35-1.41.62-2.13.41-1.13,2-1.59,3-1.76a24.51,24.51,0,0,0,3.91-.63c.62-.2,1.21-.52,1.84-.68a8.36,8.36,0,0,1,3.22.12c1.13.18,2.53-1,1.69-2.2a4,4,0,0,0-.31-.48s-.13.4-.08.51-.22,0,.09,0a5.41,5.41,0,0,0,1.84-.73,3.41,3.41,0,0,0,.8-.54c.72-.73-.58.09-.63,0,.14.37,2,.62,2.26.67,1.89.33,2.7-2.56.8-2.89-1-.18-2.3-1-3.34-.74-.73.18-1.13.84-1.83,1.11A4.65,4.65,0,0,0,151,144a2.66,2.66,0,0,0,.3,3.11l1.69-2.2a11.37,11.37,0,0,0-4.89-.1,27.51,27.51,0,0,1-3.38,1c-2,.3-3.89.37-5.59,1.63a5,5,0,0,0-1.72,2.2,6.09,6.09,0,0,0-.29,1.41c-.07.73-.07.08.32-.3l1.06-.44c-.19,0,1,.21,1.13.59,0,0-.08-.1-.1-.15a2.91,2.91,0,0,0-.49-.62,3.53,3.53,0,0,0-1.52-1,4.75,4.75,0,0,0-4,.77c-1,.7-1.71,1.68-2.69,2.38a8.08,8.08,0,0,1-4.58,1.32c-4.6.23-11.77,2.05-13.11,7.2a7.09,7.09,0,0,0,.68,4.9c1.13,2.34,3.44,3.6,5.7,4.66l-.69-1.7a43.68,43.68,0,0,0-.78,7.57c-.19,4-.23,7.92-.24,11.88,0,9.43.18,18.86.53,28.27.16,4.53.36,9.06.63,13.58a1.5,1.5,0,0,0,3,0c0-.12.06-.28,0,.2,0-.13,0-.26.07-.39a10.66,10.66,0,0,1,.35-1.26,6.38,6.38,0,0,1,2-2.86c2.06-1.55,4.54-1.09,7-.63a86.21,86.21,0,0,1,12.7,3.59A1.51,1.51,0,0,0,146,226.8a3.82,3.82,0,0,1,.23-3.15,1.79,1.79,0,0,1,1.21-1,8.37,8.37,0,0,1,2.29.07,39.82,39.82,0,0,1,7.38,1.75c1.54.49,2.37-1.45,1.46-2.51a25.57,25.57,0,0,1-2.4-3.26c-.2-.32-.38-.74-.55-1a.63.63,0,0,1-.07-.22.43.43,0,0,1,0,.25c-.52.54-.57.73-.16.57a10.2,10.2,0,0,0,1.17-.13,4.24,4.24,0,0,1,.88.12,5.2,5.2,0,0,1,.67.21c.27.09-.18-.1.06,0a1.51,1.51,0,0,0,2.26-1.29q0-17.75.22-35.49c.07-6.7.06-13.4-.13-20.09-.18-6-.43-12.09-.69-18.13C159.7,141.61,156.7,141.6,156.78,143.54Z"/><path class="cls-5" d="M18.42,198.29c-4.15-1.53-13.83-7.76-13.47-12.7,5.86-.09,11.43-16.28,12.45-14.83,6.35,9.06,5.87,8.41,9.92,10.32"/><path class="cls-5" d="M18.82,196.84a28.52,28.52,0,0,1-7.64-4.58c-1.91-1.54-4.85-3.94-4.73-6.67L5,187.09c2.5-.11,4.46-1.89,6-3.73a47.77,47.77,0,0,0,4.61-7.19c.55-1,1.09-2,1.67-3,.19-.32.39-.64.59-1s0,0,.1-.13c.14-.35.13,0-.3.09L17,172c-.59-.32-.77-.33-.56,0a5.93,5.93,0,0,0,.53.76l1,1.38,1.58,2.22a36.31,36.31,0,0,0,2.42,3.1,14.16,14.16,0,0,0,4.68,3c1.73.82,3.26-1.77,1.51-2.59-.8-.38-1.62-.73-2.39-1.17l-.43-.25c-.07-.05-.46-.33-.21-.13a7.57,7.57,0,0,1-.92-.87A26.85,26.85,0,0,1,22,174.65c-.58-.81-1.15-1.62-1.72-2.44a14.68,14.68,0,0,0-1.83-2.56c-1.84-1.6-3.29,1-4,2.36-1.34,2.36-2.57,4.78-4.05,7.06a20.77,20.77,0,0,1-2.72,3.48A4.82,4.82,0,0,1,5,184.09a1.54,1.54,0,0,0-1.5,1.5c-.16,3.52,2.86,6.52,5.36,8.59A33,33,0,0,0,18,199.73c1.81.68,2.59-2.21.8-2.89Z"/><path class="cls-6" d="M120.2,208.36c-.21-4.18-1-7.86-1-12a1.32,1.32,0,0,1,1.29-1.28c.48,0,1.13-1.2,1.44-1.54a14.66,14.66,0,0,1,1.38-1.35,24.09,24.09,0,0,1,3.6-2.46c2.48-1.46,5.23-2.37,7.72-3.8a32.71,32.71,0,0,1,5.81-2.63c-38.33-5.61-104,29.37-104,29.37-2.91,16.92,18.68,15.33,75.11,17.16,2.56.08,5.4.26,8.4.45C120,226.38,120.3,210.51,120.2,208.36Z"/><path class="cls-6" d="M121.7,208.36c-.18-3.24-.74-6.44-1-9.68,0-.42-.33-2-.08-2.36-.36.46.91-.18,1.08-.32.88-.7,1.46-1.77,2.3-2.53a29.32,29.32,0,0,1,7.86-4.58c3-1.36,5.77-3.11,8.9-4.18,1.25-.43,1.6-2.67,0-2.9a82.1,82.1,0,0,0-23.32.44A171.29,171.29,0,0,0,92.31,188a328.23,328.23,0,0,0-43.25,16.76c-3.91,1.81-7.8,3.69-11.63,5.65a15.75,15.75,0,0,0-1.73.9c-1.37.95-1.09,4.17-.9,5.68,1.15,9.19,12.46,10.84,19.85,11.77,7.68,1,15.45,1.25,23.18,1.52,11.08.38,22.17.61,33.25,1,3,.09,5.92.27,8.88.46a1.52,1.52,0,0,0,1.5-1.5c0-7.28.55-14.61.24-21.88-.09-1.92-3.09-1.93-3,0,.31,7.27-.24,14.6-.24,21.88l1.5-1.5c-18.42-1.17-36.9-.88-55.32-2.06a101.8,101.8,0,0,1-16.13-2c-1-.23-2-.49-3-.8a21.92,21.92,0,0,1-2.31-.86,16.16,16.16,0,0,1-2.08-1.13,5.91,5.91,0,0,1-1.38-1.12c-.2-.19-.65-.72-.65-.71s-.37-.55-.51-.79l-.24-.48c-.21-.4,0,0-.11-.23a7.49,7.49,0,0,1-.32-1.05c0-.18-.08-.36-.12-.55-.09-.45,0,0-.05-.29s-.06-.8-.07-1.21,0-.86.05-1.29a11.31,11.31,0,0,1,.15-1.19l-.68.9c7.87-4.2,16-7.9,24.22-11.4,16.32-7,33.28-13.05,50.75-16.37,9.09-1.73,18.62-2.78,27.83-1.45v-2.9c-3.38,1.16-6.37,3-9.61,4.49a30.33,30.33,0,0,0-8.75,5.31,11.88,11.88,0,0,0-1.33,1.51c-.41.53-.34.4-1,.7-1.46.66-1.67,2-1.63,3.46.09,3.71.8,7.37,1,11.08C118.8,210.28,121.8,210.29,121.7,208.36Z"/><path class="cls-5" d="M18.42,198.29c-4.15-1.53-13.83-7.76-13.47-12.7,5.86-.09,11.43-16.28,12.45-14.83,6.35,9.06,6,8.15,9.92,10.32C72.36,206,18.42,198.29,18.42,198.29Z"/><path class="cls-5" d="M18.82,196.84a28.52,28.52,0,0,1-7.64-4.58c-1.91-1.54-4.85-3.94-4.73-6.67L5,187.09c4-.17,6.66-4.37,8.53-7.39,1.09-1.76,2.06-3.59,3.06-5.4.35-.64.7-1.29,1.09-1.9l.22-.33c.16-.23-.06.19,0,0a.42.42,0,0,1,.17-.18c-.13.06-.19.2-.34.21s-1.36-.29-1.36-.22c0,.44,1.15,1.65,1.42,2,.45.62.9,1.25,1.36,1.87.65.9,1.32,1.79,2,2.64A11.88,11.88,0,0,0,24.07,181c4.07,2.51,8.36,4.62,12.33,7.32A42.15,42.15,0,0,1,41,191.89a19.68,19.68,0,0,1,1.51,1.52,5,5,0,0,1,.83,1.14c.08.14.31.62.26.49s.09.32.12.44c.1.35,0-.29,0,.17s.07-.22,0,.15,0-.07,0,.11a.59.59,0,0,1-.11.19c-.23.21.18-.21,0,0a3.55,3.55,0,0,1-.34.33c.33-.3-.07,0-.22.13a4.74,4.74,0,0,1-.5.26c-.26.14.09,0,0,0l-.34.13a12.68,12.68,0,0,1-1.37.4,18,18,0,0,1-3,.45,61,61,0,0,1-7.88.07c-2.4-.1-4.81-.29-7.2-.54L20.11,197l-.89-.12-.32,0c-.07,0,.45.06.11,0l-.19,0a1.56,1.56,0,0,0-1.85,1A1.51,1.51,0,0,0,18,199.73c3.46.5,6.94.83,10.43,1a72.35,72.35,0,0,0,8.33.07,20.29,20.29,0,0,0,7.08-1.36c1.84-.83,3.2-2.44,2.83-4.55-.44-2.56-2.81-4.61-4.7-6.17a90,90,0,0,0-14.17-9.11c-.59-.33-1.2-.64-1.79-1-.25-.14-.48-.28-.71-.43a2.53,2.53,0,0,1-.52-.37,25,25,0,0,1-3.57-4.3c-.45-.62-.9-1.25-1.34-1.88a12.7,12.7,0,0,0-1.47-2,1.75,1.75,0,0,0-2.29-.07c-1.07.79-1.71,2.35-2.33,3.48-1.05,1.91-2.08,3.84-3.26,5.68a16.58,16.58,0,0,1-3.84,4.61,3.6,3.6,0,0,1-1.75.74,1.54,1.54,0,0,0-1.5,1.5c-.16,3.52,2.86,6.52,5.36,8.59A33,33,0,0,0,18,199.73C19.83,200.41,20.61,197.52,18.82,196.84Z"/><path class="cls-7" d="M34.61,190.63h0c-8.43-3.71-13.35-14.51-21.92-15.55h0c-2.95,3.73-3.23,5.13-5,7.35,2.9,4,18.89,21,22.45,13.35C31.6,194.15,33.78,192.57,34.61,190.63Z"/><path class="cls-5" d="M28.94,193.33c-8.06,1.1-14.37,7.59-16.77,14.77,9,2.65,11.53,9.77,18.39,15.2.89-8.13,5.52-11.31,12.4-14C43,209.3,54.83,189.78,28.94,193.33Z"/><path class="cls-5" d="M28.54,191.88c-8.44,1.25-15.11,7.93-17.81,15.82a1.51,1.51,0,0,0,1,1.84A21.59,21.59,0,0,1,21.34,216c2.66,2.88,5.09,5.94,8.16,8.4a1.52,1.52,0,0,0,2.56-1.06A13.58,13.58,0,0,1,35,215.94a18,18,0,0,1,6.11-4.24c1.19-.55,2.67-.81,3.36-2a18.55,18.55,0,0,0,.93-1.9c2-4.56,3.12-10.67-1.49-14.09-4.11-3-10.21-2.52-15-1.89a1.55,1.55,0,0,0-1.5,1.5,1.5,1.5,0,0,0,1.5,1.5c3.49-.47,7.26-.82,10.7.16a5.9,5.9,0,0,1,4.07,3.06,1,1,0,0,1,.11.27c.07.22.13.43.19.65a3.41,3.41,0,0,1,.15.95q0,.62,0,1.23c0,.18,0,.37,0,.55a2.61,2.61,0,0,1-.07.49,17.56,17.56,0,0,1-.59,2.35c-.11.33-.23.67-.35,1s-.15.37-.22.55-.11.27,0,0l-.13.3a22.48,22.48,0,0,1-1.11,2.19l.89-.69c-3.32,1.31-6.68,2.85-9.21,5.45a16.72,16.72,0,0,0-4.29,10l2.56-1.06c-3.25-2.61-5.76-5.88-8.61-8.89a23.93,23.93,0,0,0-10.44-6.7l1,1.85c2.39-7,8.31-12.63,15.72-13.72C31.24,194.49,30.43,191.6,28.54,191.88Z"/><path class="cls-5" d="M148.72,177.44c3.86-1.33,11.55-5.59,15-6.07,0,11,9.73,12,8.62,13.43-4.75,6-21.12,14.33-23,13.91C119.15,191.79,148.72,177.44,148.72,177.44Z"/><path class="cls-5" d="M149.11,178.89c2.64-.93,5.16-2.2,7.69-3.36a28.75,28.75,0,0,1,7.29-2.71l-1.9-1.45a14.53,14.53,0,0,0,3.71,10c1.5,1.61,3.38,2.56,5.17,3.79,0,0,0-.18.09.08a1.84,1.84,0,0,1-.26-.72c0-.48.44-.9-.06-.34-.26.28-.52.56-.79.83a32.36,32.36,0,0,1-3.89,3.23,80.14,80.14,0,0,1-9.65,5.91,45.05,45.05,0,0,1-7,3c.29-.1,0-.08.14,0,.46.25-.75-.19-.74-.19l-.85-.21c-1.26-.32-2.51-.69-3.74-1.12a19.84,19.84,0,0,1-4.7-2.28,5.86,5.86,0,0,1-2.07-2.25,3.13,3.13,0,0,1-.17-1.94,10.23,10.23,0,0,1,3.26-4.63,37.42,37.42,0,0,1,8.87-5.89c1.74-.84.22-3.43-1.51-2.59-5.65,2.75-18.42,10.66-12,18.11,2.49,2.88,6.69,4.23,10.22,5.21,1.57.44,3,1,4.61.54a25.15,25.15,0,0,0,3.66-1.46,80,80,0,0,0,10.41-5.76c1.7-1.1,3.35-2.27,4.93-3.53a17.81,17.81,0,0,0,3.66-3.54c1.6-2.35-2-3.68-3.47-4.7a11.32,11.32,0,0,1-4.82-9.64,1.53,1.53,0,0,0-1.9-1.45,30.2,30.2,0,0,0-7.36,2.72c-2.52,1.15-5,2.44-7.61,3.35C146.51,176.63,147.29,179.53,149.11,178.89Z"/><path class="cls-7" d="M170.44,181.33a11.93,11.93,0,0,1-4.79-6.46c-5.85,3.41-30.7,17-27.14,18.83C148.59,190.52,161.05,190.72,170.44,181.33Z"/><path class="cls-5" d="M159.75,210.67c.53-1.66,2.54-1.79,4-2.08,1.23-.24,2.51-.43,3.75-.74-.13-.11-.25-.23-.37-.35-.69-.77-1.44-1.5-2.11-2.29-.84-1-2.35-2.61-.89-3.84.67-.57,1.69-.53,2.49-.8,1-.34,2-.93,3-1.2s1.88-.18,2.79-.47l.27-.1a2.72,2.72,0,0,1-.13-.37c-6.35-1-12.66-2.17-14.74-4.39,0,0-66.21-1.45-37.65,7.11,10.54,3.16,19.91,5.54,29.3,9.4a99.89,99.89,0,0,0,10.69,3.36A4.34,4.34,0,0,1,159.75,210.67Z"/><path class="cls-5" d="M161.19,211.07c.3-.74,1.72-.81,2.38-.93,1.44-.26,2.89-.5,4.32-.84a1.52,1.52,0,0,0,.66-2.51A30.43,30.43,0,0,1,166,204a3.7,3.7,0,0,1-.84-1.13c-.17-.54.21-.51.76-.64a21.08,21.08,0,0,0,3.34-1.19c1.23-.48,2.58-.37,3.82-.83a1.52,1.52,0,0,0,1-1.84L174,198a1.49,1.49,0,0,0-1.05-1.05,59.65,59.65,0,0,1-11.29-2.44,10,10,0,0,1-1.79-.82,13.19,13.19,0,0,0-1.47-1.05,2.17,2.17,0,0,0-.75-.14c-1.49-.08-3,0-4.49-.06-6.53-.06-13.06,0-19.59.19-3.46.11-6.92.27-10.37.58a46.84,46.84,0,0,0-7.92,1.16c-1.51.4-3.75,1.15-3.76,3.06,0,2.12,2.72,3.14,4.31,3.79,2,.79,4,1.37,6,2,4,1.18,8,2.3,11.93,3.5,3.82,1.15,7.62,2.36,11.35,3.75,3,1.09,5.82,2.29,8.82,3.23,1.92.6,3.86,1.15,5.81,1.67a1.52,1.52,0,0,0,1.69-2.21,3.12,3.12,0,0,1-.23-2.08c.48-1.87-2.41-2.67-2.89-.79a6.49,6.49,0,0,0,.53,4.39l1.7-2.2c-3.11-.82-6.19-1.73-9.22-2.81-2.86-1-5.65-2.22-8.53-3.21-6.87-2.37-13.89-4.27-20.85-6.33-1.72-.51-3.44-1-5.12-1.68a12.44,12.44,0,0,1-2.17-1.11c-.34-.21.26.17-.12-.09s0-.27,0,0c0,0-.07-.1-.08-.13-.07-.21.06.39.08.19s0,.45,0,.47c0-.3-.27.58-.06.14,0,0-.32.17,0,0l.42-.23c.31-.17-.31.09.16-.07l.52-.17c.41-.13.82-.23,1.23-.32s.89-.19,1.34-.27l.81-.13.76-.12c2.71-.36,5.44-.55,8.17-.71,6.31-.36,12.63-.45,18.94-.46,3.69,0,7.39,0,11.08.09l-1.06-.44c1.59,1.6,3.93,2.36,6.05,3a80,80,0,0,0,9.35,1.82l-1-1.05.13.37,1-1.84a17.19,17.19,0,0,1-2.67.49,13.79,13.79,0,0,0-2.62,1c-1.51.64-3.39.56-4.42,2.06a3.5,3.5,0,0,0,.36,4.1,25.75,25.75,0,0,0,3.52,3.93l.66-2.51c-3,.72-7.44.48-8.79,3.88C157.59,212.07,160.49,212.85,161.19,211.07Z"/><path class="cls-7" d="M167.49,207.85c-.13-.11-.25-.23-.37-.35-.69-.77-1.44-1.5-2.11-2.29-.84-1-2.35-2.61-.89-3.84.67-.57,1.69-.53,2.49-.8l.18-.07a100.08,100.08,0,0,1-17-6.46c-11.88-4.07-16.18-.86-28-4.39-3.17,9,27.88,15.93,44.29,18.5C166.53,208.06,167,208,167.49,207.85Z"/><path class="cls-8" d="M124,191.67c8.28-.37,26.72-9.57,26.72-9.57,4.56,3,16.43,14.29,11,11.85-11.54-5.18-20.85,1.86-22.22,15.29-.41,4.09-6.09-4.65-8.38-1.14-2.4,3.67.86,9.56-3,12.66-11.27,9.15-7.17-21-17.19-17.66C110.89,203.1,115.68,192,124,191.67Z"/><path class="cls-7" d="M43,187c-13.24,8.77-21.85,9.17-27.65,24,3.9,2.45,4.58,3.34,9.18,8.47C27.6,216.55,67.14,168,43,187Z"/><path class="cls-9" d="M36.2,195.4c11.39,4.68,5.75,24.93,15.2,23.51,4.77-.72,2.76-4.85,4.35-7.62,3.74-6.53,12.34-6,12.86.59.59,7.38,13.07,2.6,13.12,1.49C83.1,182.56,18.52,188.12,36.2,195.4Z"/><path class="cls-9" d="M35.45,196.69c6,2.58,6.81,9.79,8.14,15.44.56,2.37,1.22,5.1,3.06,6.85a6.23,6.23,0,0,0,8.19,0c1.24-1.2,1.44-2.91,1.62-4.53A6.64,6.64,0,0,1,58.61,210c2-1.9,6-2.93,7.81-.21.93,1.38.6,3.16,1.38,4.62A5.46,5.46,0,0,0,71,217c2.61.85,5.7.27,8.24-.61a11.4,11.4,0,0,0,2.83-1.32c1.1-.77,1.16-1.72,1.14-3a19.81,19.81,0,0,0-1.64-7.67,22.56,22.56,0,0,0-9.67-10.13c-8.47-4.88-19.11-6.51-28.78-6-3.13.16-6.81.37-9.61,1.94a3.28,3.28,0,0,0-1.92,2.69,3.71,3.71,0,0,0,2,2.9,13.06,13.06,0,0,0,2.16,1.05c1.78.74,2.55-2.16.79-2.89.3.12-.22-.1-.28-.13l-.46-.22c-.27-.14-.52-.3-.77-.45-.07,0-.41-.3-.19-.13l-.14-.12-.18-.19c-.08-.08.19.33,0,0s0,.05,0,.1c0-.24,0-.12,0,.15.07-.38.07.34,0,0,0-.09-.12.51,0,.13.05-.22-.24.32-.06.08a.64.64,0,0,1,.17-.16c.31-.14-.31.18,0,0l.54-.31c.11-.06.23-.1.34-.15-.44.2,0,0,.14-.05.6-.2,1.2-.38,1.81-.53a25.77,25.77,0,0,1,4.64-.63c8.73-.6,18.18.62,26.11,4.46,3.84,1.85,7.43,4.45,9.63,8.08a15.68,15.68,0,0,1,2.15,6,15.93,15.93,0,0,1,.14,1.59c0,.27,0,.55,0,.82v.42c0,.3-.14.41,0,.28a4.55,4.55,0,0,1,.27-.48c-.07.15-.19,0,0,.05s-.12.08-.29.18a10.37,10.37,0,0,1-1,.5c-2.08.85-4.74,1.56-7,1a2.49,2.49,0,0,1-1.94-1.63c-.24-.68-.2-1.44-.37-2.14a6.87,6.87,0,0,0-1-2.37c-4.43-6.42-14.34-1.4-15.27,5.16-.15,1.09,0,2.8-.91,3.6a3.56,3.56,0,0,1-3.23.43,2.91,2.91,0,0,1-.69-.44,3.34,3.34,0,0,1-.79-1.05,12.44,12.44,0,0,1-1.15-3.09c-1.48-5.48-1.93-11.78-6.11-16.06A11.68,11.68,0,0,0,37,194.1a1.55,1.55,0,0,0-2.05.54A1.5,1.5,0,0,0,35.45,196.69Z"/><path class="cls-10" d="M31.41,175.53c-4,5.17-8.27,16.09-.77,18.9,9.13,3.42,20.74-4.8,48,15.55,15,11.22,25.68-4.95,39.68-12.23,6-3.12,11.45,10.74,14.64,0,2.31-7.81,25.78-14.58,14.52-17.35-19.44-4.78-30.69-2-30.69-2l-81.71-3.05"/><path class="cls-10" d="M30.11,174.78a27.12,27.12,0,0,0-4.16,8c-.89,2.72-1.4,5.89-.36,8.64,1.63,4.33,6.35,5.28,10.46,5.47,3.83.18,7.65,0,11.47.43a49.33,49.33,0,0,1,16.42,5.17,88.28,88.28,0,0,1,11,6.66c3.39,2.38,6.57,5,10.73,5.83,6.88,1.41,13.17-2.06,18.61-5.88,3.07-2.16,6-4.48,9.11-6.6,1.54-1.05,3.1-2.05,4.73-2.95a3.64,3.64,0,0,1,2.89-.65c3.41.92,7.37,6.88,11.11,3.52,1.81-1.63,1.82-4.15,3.16-5.93a21.61,21.61,0,0,1,5.37-4.57c2-1.38,4.17-2.63,6.23-4a15.11,15.11,0,0,0,4.51-3.74,2.86,2.86,0,0,0-.77-4.14,8.58,8.58,0,0,0-2.76-1.1c-2.33-.6-4.7-1.08-7.06-1.49A77.89,77.89,0,0,0,121,176.28a33.48,33.48,0,0,0-4.24.57c-.8.16.46.07-.36,0-1.91-.15-3.85-.14-5.77-.22l-25.54-.95L54.7,174.55,36,173.86l-.93,0c-1.93-.07-1.93,2.93,0,3l12.63.47,27.85,1,28,1,9.38.35c1.25.05,2.55.21,3.8.14a19.23,19.23,0,0,0,2-.34l.77-.1,1.37-.14c1.1-.09,2.2-.15,3.29-.18a85.43,85.43,0,0,1,22.4,2.62,10.76,10.76,0,0,1,2.46.88c.05,0,0,0,0,0a2.3,2.3,0,0,0,0-.33c.06.18-.07.21,0,.09-.17.4-.06.18-.37.5s-.58.56-.89.82c-.63.51-1.45,1.06-2.2,1.55-4,2.61-8.46,4.86-11.73,8.38a10.8,10.8,0,0,0-1.84,2.52,35,35,0,0,1-1.41,3.47,3.21,3.21,0,0,1-.67.75.76.76,0,0,1-.39.05,6.11,6.11,0,0,1-2.16-1.14c-1.77-1.23-3.49-2.73-5.64-3.28-2.95-.74-5.5,1.12-7.88,2.64-5.94,3.79-11.2,8.78-17.59,11.86a16.07,16.07,0,0,1-8.79,1.76c-3.91-.46-6.93-2.77-10-5C67.26,200,55.92,194.45,43.24,194c-1.81-.07-3.63,0-5.45-.07a30,30,0,0,1-4.28-.3c-1.8-.31-3.76-.86-4.76-2.52-1.32-2.17-.68-5.14,0-7.4a25,25,0,0,1,3.91-7.43c1.17-1.54-1.43-3-2.59-1.51Z"/><path class="cls-11" d="M77.3,186.23c-7.46,16.51,39.29,10.47,24.18-.07"/><path class="cls-11" d="M76,185.47c-1.35,3.05-1.49,6.5,1.1,8.95,2.42,2.29,5.94,3.06,9.14,3.39a33.53,33.53,0,0,0,11.07-.76c2.78-.67,6.08-1.76,7.83-4.19,2.22-3.11-.34-6.19-2.91-8-1.58-1.11-3.08,1.49-1.51,2.59a9.37,9.37,0,0,1,1.48,1.27l.3.34.08.13c.13.2.38.73.27.44a5.72,5.72,0,0,1,.17.59c-.12-.55,0,.45,0,.19s-.07.26-.11.38.16-.28,0,0l-.18.31c-.19.33.13-.06-.25.3a7.41,7.41,0,0,1-.58.54c.28-.23-.27.19-.39.26a8.13,8.13,0,0,1-.81.47A15.83,15.83,0,0,1,97.13,194a30.07,30.07,0,0,1-9.29.93,16.15,16.15,0,0,1-7.83-2,2.45,2.45,0,0,1-.6-.44,7.38,7.38,0,0,1-.68-.69c-.12-.15.08.13-.11-.16l-.24-.4c-.06-.1-.22-.47-.1-.17,0-.14-.11-.29-.15-.44s-.07-.31-.11-.46,0,.2,0-.21a6.42,6.42,0,0,1,0-1c0-.23,0,.23,0,0a2.74,2.74,0,0,1,0-.28c0-.19.08-.39.14-.58a9.81,9.81,0,0,1,.38-1.1c.78-1.75-1.81-3.28-2.59-1.52Z"/><path class="cls-6" d="M119.32,170.18c-.13-.42-2.73-3.08-3.14-3.81s-3.25-3.73-1.28-6.73c.93-1.43,2.95-2.19,4.38-3,4.77-2.58,17.75,3,18.89,3.91.15.12-2.13-5.5-2.41-8-.3-2.66.77-3.78,23.06,2.49.77.22-6.29-9.28-6.51-11.11-.08-.62,5.95-.59,6.13-1-3.44-.66-8.73-1.61-11.65-1.88-17.61-1.62-59.41-1.44-82.79-3.6-23.86-2.2-45.18,14-31.66,39.91,2.95,5.65,48,8.88,86.88,8.8C119.06,185.18,119.33,170.19,119.32,170.18Z"/><path class="cls-6" d="M120.62,169.42a12,12,0,0,0-2-2.41,19.89,19.89,0,0,1-1.61-2c-.74-1.06-1.59-2.32-1.25-3.68.43-1.68,2.42-2.37,3.81-3.08,1.94-1,4.15-.76,6.24-.37a44.24,44.24,0,0,1,7.56,2.21c1,.37,1.94.77,2.89,1.23.66.32,1.53,1,2.29.77a1.53,1.53,0,0,0,1.1-1.45,10.08,10.08,0,0,0-.69-2.25c-.44-1.24-.87-2.49-1.23-3.76a10.58,10.58,0,0,1-.51-2.28c0-.11,0-.23,0-.34,0-.4-.12.3,0,0s-.19.38,0,.06c-.29.57,0-.12,0,0s-.42.13-.1,0l.24-.06c.44-.12-.23,0,.28,0,.25,0,.49,0,.74,0a16,16,0,0,1,1.81.15c5.48.72,11.18,2.45,16.59,3.95,1.22.34,3.54,1.13,3.6-1a3.52,3.52,0,0,0-.69-1.74c-1.06-1.77-2.27-3.47-3.39-5.21-.67-1-1.33-2.07-1.93-3.14-.12-.21-.23-.43-.34-.65s-.28-.47-.13-.25a2,2,0,0,1-.13-.42c-.18.06-.69,1.54-.73,1.53s.25-.09.35-.09a31.63,31.63,0,0,0,3.21-.29c.89-.07,2.23,0,2.9-.73a1.52,1.52,0,0,0-.66-2.51,127.12,127.12,0,0,0-13-2c-3.31-.28-6.63-.46-9.94-.61-8.58-.39-17.15-.6-25.73-.83-9.38-.26-18.75-.51-28.12-.93-4.25-.19-8.5-.41-12.75-.72a97.21,97.21,0,0,0-11.94-.56c-7.72.4-15.5,2.7-21.61,7.57a23.87,23.87,0,0,0-9.1,18.73A32.93,32.93,0,0,0,29.51,175c1,2.35,1.79,4.25,4.14,5.38a31.34,31.34,0,0,0,6.69,2.11c3.38.75,6.81,1.28,10.23,1.74,20,2.68,40.32,3.33,60.47,3.52,2.73,0,5.45,0,8.18,0,.74,0,1.61-.69,1.5-1.5a60.67,60.67,0,0,1,0-8.42c0-2.54.11-5.09.1-7.63a1.5,1.5,0,0,0-3,0c0,2.54-.08,5.09-.1,7.63a60.67,60.67,0,0,0,0,8.42l1.5-1.5a582.72,582.72,0,0,1-61-2.65c-6.66-.68-13.48-1.41-19.94-3.24-.52-.15-1-.3-1.55-.48l-.62-.21c-.09,0-.69-.28-.47-.18-.36-.16-.72-.32-1.06-.51l-.43-.27a1.64,1.64,0,0,1-.22-.14c-.24-.18.22.2,0,0s-.17-.15-.25-.24c-.26-.3.12.23,0,0-.52-1-1-2-1.43-3a34.32,34.32,0,0,1-2.08-6.49,21.3,21.3,0,0,1,4.94-19.19c4.89-5.25,12-8,19-8.94a56.07,56.07,0,0,1,11.87,0c3.9.32,7.81.56,11.72.76,9,.46,17.92.73,26.88,1,8.69.25,17.39.45,26.08.78a165.7,165.7,0,0,1,20.77,1.55c2.21.36,4.4.76,6.6,1.18l-.66-2.51c.64-.7.6-.18.16-.23.25,0-.28,0-.29,0l-1.6.13a21,21,0,0,0-3.06.33c-2.32.51-1.8,2.44-1,4,1,1.93,2.29,3.75,3.5,5.57.54.82,1.08,1.63,1.6,2.46.2.31.38.62.58.94a2,2,0,0,0,.15.29q.1.22-.06-.15c.11.39.17,0,.16-1l.9-.69c.58-.24,0-.14-.2-.26a5.6,5.6,0,0,0-1.15-.32l-2-.54c-1.19-.33-2.38-.64-3.57-.95-1.86-.49-3.74-1-5.62-1.38a42.89,42.89,0,0,0-7.21-1.2c-2.31-.11-4.68.67-4.51,3.39a19,19,0,0,0,1.11,4.62c.27.84.57,1.67.86,2.51.12.31.23.62.34.94s.19.83.12.16l1.1-1.45h0l1.15.15a20.9,20.9,0,0,0-5.1-2.29,40.61,40.61,0,0,0-8.45-2.28,16.56,16.56,0,0,0-4.1-.15,11.24,11.24,0,0,0-3.83,1.35c-1.71.86-3.39,1.86-4.22,3.67a6,6,0,0,0,.16,5.1,16.4,16.4,0,0,0,2.13,3.27,24.16,24.16,0,0,1,2.52,3C118.84,172.68,121.43,171.16,120.62,169.42Z"/><path class="cls-12" d="M69.85,156.38c14.7,4.68,30.42,5.6,45.73,4.49,1.91-.14,1.93-3.14,0-3-15.07,1.1-30.47.22-44.93-4.39-1.84-.58-2.63,2.31-.8,2.9Z"/><path class="cls-13" d="M6.77,130.35,8,137.22C6.09,112.88,4.22,88.55,1.68,68.83c.53-5,1.16-10.28,4.26-14.23s9.58-5.7,13.17-2.19c2.83,2.77,2.69,7.32,2.05,11.23A78.28,78.28,0,0,1,9,94.46c1.18-4.93,7.07-7.79,12-6.6s8.64,5.59,10.14,10.43,1.11,10.09.15,15.07A55.16,55.16,0,0,1,24.22,132c-1.64,2.65-3.94,5.34-7,5.58S11.06,133.83,6.77,130.35Z"/><path class="cls-13" d="M43.51,118.3l-1,5.44c1.31-25.64-.23-51.42-3.94-71.33,1.51-4.08,3.09-8.28,6-11.46s7.7-5.15,11.76-3.6c3.8,1.43,6,5.54,6.45,9.58S62.11,55,61,58.87c-3.27,11-7.33,22.49-16.13,29.87,1.25-4.83,8.08-6.37,12.29-3.71s6,8,6.4,12.93-.44,10,0,15,2.39,10.23,6.7,12.74"/><path class="cls-13" d="M81.73,34.91a362.44,362.44,0,0,0,6.5,89.23,27.18,27.18,0,0,0,16.56-11.51"/><path class="cls-13" d="M84.41,72.65l7-2.72"/><path class="cls-13" d="M82.6,35.8a77.87,77.87,0,0,1,22.65-13.6"/><path class="cls-13" d="M114.39,111.32l6.53-94.27a282.52,282.52,0,0,1,20.22,62.62"/><path class="cls-13" d="M120.66,62.08l10.27-9.67"/><path class="cls-13" d="M148.63,77.79a646.21,646.21,0,0,1-.93-66.46"/><path class="cls-13" d="M159.61,8.6A142.91,142.91,0,0,0,149,43.87l12.2,30.28"/><path class="cls-13" d="M176.33,77.48,173.21,9.29A41.93,41.93,0,0,0,198.3,7.12"/><path class="cls-13" d="M174.73,40.63l11.48-3.32"/><path class="cls-13" d="M195,79,204.5,5a608.91,608.91,0,0,0,3,79.2"/><path class="cls-13" d="M198.25,51.51,209.74,50"/><path class="cls-13" d="M226.86,8.71c-.8-2.75-3.1-5.19-6-5.49s-5.88,2.1-5.67,5c.25,3.54,4.37,5.15,7.2,7.28,5,3.77,6.66,10.55,7,16.81.7,12.85-2.64,25.55-6.33,37.88-1.6,5.37-3.81,11.34-9,13.55a3.46,3.46,0,0,1-.58-3.29"/><path class="cls-13" d="M230.14,88.32q4-42,10.6-83.63"/><path class="cls-13" d="M231.86,3.7a125.27,125.27,0,0,0,19.42-2"/></g></g></svg>