<svg xmlns="http://www.w3.org/2000/svg" viewBox="0 0 263.45 230.43"><defs><style>.cls-1{fill:#fffad9;}.cls-2{fill:#a67121;stroke:#a67121;stroke-width:3.01px;}.cls-2,.cls-7{stroke-miterlimit:10;}.cls-3{fill:#d6a151;}.cls-4{fill:#9e5018;}.cls-5{fill:#e5c982;}.cls-6{fill:#d48853;}.cls-7{fill:#f5e838;stroke:#f8e700;}.cls-8{fill:#f8e700;}.cls-9{fill:#fff;}.cls-10{fill:#ffff8a;}.cls-11{fill:#c79754;}.cls-12{fill:none;stroke:#a0d16b;stroke-linecap:round;stroke-linejoin:round;stroke-width:3.36px;}</style></defs><g id="Layer_2" data-name="Layer 2"><g id="Layer_17" data-name="Layer 17"><path class="cls-1" d="M135.56,94.77s38.95-21,96.56,2l-1.65,35.87c8.36-15.58,32.22-13.68,31.5.34-2.17,41.83-35.81,61.59-35.81,61.59-.35,6.75-1.85,15.12-2.45,15.49-11.58,7.2-65,9.5-79.34-.35C144.37,209.74,131.76,120.6,135.56,94.77Zm117.78,48.51c3.28-23.88-20.66-4.18-22.13-1.34-1,1.92-5.41,38.68-3.69,41.7C229.05,183,251.24,158.53,253.34,143.28Z"/><path class="cls-1" d="M136.31,96.07c.35-.19.71-.36,1.07-.53s.88-.4,1.32-.6l.46-.19c-.32.13,0,0,.13-.06l1-.4a90.41,90.41,0,0,1,12.25-3.8A119.67,119.67,0,0,1,197,88.81a152.77,152.77,0,0,1,34.68,9.44l-1.1-1.45-1.45,31.43-.2,4.44a1.51,1.51,0,0,0,2.79.75,19.58,19.58,0,0,1,18.35-10.15,12.5,12.5,0,0,1,7.93,3.16c2.53,2.47,2.54,5.58,2.27,8.89A76.49,76.49,0,0,1,240,180.87a82.69,82.69,0,0,1-6.36,6.2c-1.67,1.47-3.23,2.73-4.86,3.92-1,.71-1.94,1.4-3,2-.14.09-.3.17-.44.27-1,.76-.79,2.18-.88,3.32-.12,1.51-.28,3-.47,4.51a64.53,64.53,0,0,1-1.17,6.76c-.08.33-.17.66-.26,1s-.14.38,0,.21c.28-.39.16-.16-.16,0l-.68.35a35.07,35.07,0,0,1-7.07,2.29,125.35,125.35,0,0,1-21.75,2.8,176.37,176.37,0,0,1-25-.29c-6.58-.57-13.59-1.42-19.7-4.08a18.85,18.85,0,0,1-3.15-1.72l.69.9c-.45-3.17-.78-5.66-1.18-8.72q-1.5-11.31-2.82-22.64-1.71-14.61-3.09-29.24c-.9-9.73-1.67-19.47-2.1-29.23a156.54,156.54,0,0,1,.16-22.61c0-.31.07-.63.11-.94.06-.5,0-.31.1-.79.28-1.89-2.61-2.7-2.89-.8a108.64,108.64,0,0,0-.72,17.85c.16,8,.66,16,1.28,24,1.28,16.69,3.1,33.35,5.14,50q1,8.63,2.2,17.24l.69,5.07a4,4,0,0,0,.61,2.27,11.9,11.9,0,0,0,3.72,2.07,40.13,40.13,0,0,0,4.69,1.66,76.39,76.39,0,0,0,11.22,2.17,160.35,160.35,0,0,0,27,1,140.25,140.25,0,0,0,24.68-2.85,40.44,40.44,0,0,0,8.26-2.6,4,4,0,0,0,2.56-2.32,35.67,35.67,0,0,0,1.28-6.41c.44-3,.77-5.92.93-8.89l-.74,1.29a57.45,57.45,0,0,0,7.91-5.87,84.81,84.81,0,0,0,15.4-17.24,77.73,77.73,0,0,0,12-29,79.64,79.64,0,0,0,1.16-8.85,15.06,15.06,0,0,0-.54-6.54,12.49,12.49,0,0,0-8.06-7.28c-9.72-3.22-20.79,2-25.57,10.79l2.8.76,1.45-31.42.2-4.45a1.54,1.54,0,0,0-1.1-1.44c-18.47-7.36-38.33-11.5-58.26-10.77A106.82,106.82,0,0,0,140.52,91a46,46,0,0,0-5.72,2.48C133.1,94.39,134.61,97,136.31,96.07Z"/><path class="cls-1" d="M254.84,143.28c.44-3.32.77-7.42-1.14-10.39a6.33,6.33,0,0,0-6.13-2.74c-5.32.51-10.36,4.19-14.32,7.55a13.2,13.2,0,0,0-3.37,3.54c-.74,1.44-.8,3.41-1,5-1,6.84-1.81,13.73-2.44,20.62-.34,3.7-.64,7.41-.75,11.13-.06,1.94-.39,4.63.57,6.42a1.53,1.53,0,0,0,2.05.54c1.22-.54,2.34-2.08,3.21-3,2.08-2.23,4-4.56,6-6.93A114,114,0,0,0,250.8,155a37.29,37.29,0,0,0,4-11.34,1.54,1.54,0,0,0-1.05-1.84,1.49,1.49,0,0,0-1.84,1c-1,7.15-5.11,13.8-9,19.71A137.46,137.46,0,0,1,230.06,179c-.75.83-1.51,1.65-2.3,2.43-.27.26-.54.5-.81.75s.21,0-.18.13l2,.54c-.15-.27.09.39,0,0,0-.12-.05-.25-.08-.37-.09-.38,0,0,0-.16s0-.38,0-.57c-.07-1-.06-2.07,0-3.11.06-3,.27-6,.51-8.93q.82-10,2.17-19.87c.29-2.13.58-4.27,1-6.37.06-.27.13-.54.19-.81.11-.56,0,.15,0-.13,0,0,.15-.22.18-.26-.35.38,0,0,.08-.08.25-.27.49-.53.75-.79a32.77,32.77,0,0,1,11.57-7.69,9.17,9.17,0,0,1,3.35-.67,3,3,0,0,1,1.26.21,4,4,0,0,1,.9.55,3.2,3.2,0,0,1,.85,1.24,8.34,8.34,0,0,1,.5,1.83,22.09,22.09,0,0,1-.15,6.34,1.5,1.5,0,0,0,1.5,1.5A1.54,1.54,0,0,0,254.84,143.28Z"/><ellipse class="cls-2" cx="181.33" cy="97.59" rx="32" ry="4.75"/><path class="cls-3" d="M176.2,93.82A83.13,83.13,0,0,1,204,98.27c-5.08,2.57-11.08,2.17-16.75,1.7l9.45-1.71A50.45,50.45,0,0,0,176.2,93.82Z"/><path class="cls-3" d="M176.2,94.36a83.77,83.77,0,0,1,27.64,4.43l-.13-1c-5.12,2.52-11,2.08-16.47,1.63l.14,1.06,9.46-1.7a.55.55,0,0,0,.12-1,51.93,51.93,0,0,0-20.76-4.52.54.54,0,0,0,0,1.08,50.69,50.69,0,0,1,20.22,4.37l.13-1-9.46,1.71c-.63.12-.42,1,.15,1.06,5.73.47,11.7.83,17-1.77a.55.55,0,0,0-.13-1,84.73,84.73,0,0,0-27.93-4.47A.54.54,0,0,0,176.2,94.36Z"/><path class="cls-4" d="M15,196.13c-4.15-1.52-13.83-7.75-13.46-12.69,5.85-.1,11.43-16.28,12.45-14.83,6.34,9.06,5.87,8.4,9.92,10.32"/><path class="cls-4" d="M15.37,194.69a28.68,28.68,0,0,1-7.64-4.58c-1.9-1.54-4.85-3.94-4.72-6.67l-1.5,1.5c2.49-.11,4.45-1.89,6-3.73A48,48,0,0,0,12.07,174c.55-1,1.09-2,1.67-3,.19-.32.39-.64.59-1s0,0,.1-.13c.14-.35.14,0-.3.08l-.63-.17c-.58-.31-.77-.33-.56,0a5.93,5.93,0,0,0,.53.76l1,1.37c.52.75,1.05,1.49,1.59,2.23a31.34,31.34,0,0,0,2.42,3.09,13.88,13.88,0,0,0,4.67,3c1.74.81,3.26-1.77,1.51-2.6-.8-.37-1.62-.72-2.39-1.16-.15-.08-.29-.17-.43-.26s-.45-.32-.21-.13a7.44,7.44,0,0,1-.92-.86,25.81,25.81,0,0,1-2.15-2.73c-.59-.8-1.16-1.61-1.73-2.43A14.68,14.68,0,0,0,15,167.5c-1.83-1.6-3.28,1-4,2.36-1.34,2.36-2.56,4.78-4,7a20.5,20.5,0,0,1-2.73,3.49,4.83,4.83,0,0,1-2.65,1.54,1.52,1.52,0,0,0-1.5,1.5C-.15,187,2.86,190,5.36,192a33,33,0,0,0,9.21,5.55c1.81.68,2.59-2.22.8-2.89Z"/><path class="cls-5" d="M33,210.48c-2.9,16.92,18.69,15.33,75.11,17.16,19.69.64,55.84,6.49,55.84-13.57C164,140.67,33,210.48,33,210.48Z"/><path class="cls-5" d="M31.56,210.08c-.54,3.2-.46,6.63,1.5,9.37s5.4,4.38,8.69,5.36a77.07,77.07,0,0,0,15.77,2.46c7.89.63,15.81.86,23.72,1.09,9.89.3,19.81.4,29.7.9,7.1.35,14.18,1,21.3,1.12,6.78.15,13.84.05,20.43-1.8,5.27-1.48,10.36-4.47,12.12-10a22.61,22.61,0,0,0,.52-8.56,44.77,44.77,0,0,0-1.22-7.9,30.25,30.25,0,0,0-6-12.07c-5.6-6.7-14.13-9.68-22.56-10.68-10.19-1.21-20.63.2-30.61,2.3A228.86,228.86,0,0,0,73,191.18c-9,3.31-17.81,7-26.5,11-4.61,2.12-9.19,4.32-13.69,6.66l-.61.32c-1.7.91-.19,3.5,1.52,2.59,3-1.59,6-3.07,9.08-4.53q11.2-5.37,22.72-10a275.93,275.93,0,0,1,30.05-10.2c9.94-2.7,20.19-4.79,30.52-5,8.43-.2,17.3.79,24.44,5.4S161.3,200,162.18,208.5c.51,5,.78,10.31-3.39,13.84s-10.59,4.41-15.93,4.82a154.81,154.81,0,0,1-21.32-.26q-11.78-.72-23.55-1.07c-9.27-.26-18.55-.47-27.82-.84-6.52-.27-13.08-.56-19.56-1.44a57.81,57.81,0,0,1-6.92-1.31,21.49,21.49,0,0,1-4.95-1.83c-.32-.17-.63-.36-.94-.55l-.46-.31-.26-.2a8.73,8.73,0,0,1-1.43-1.42c.08.1,0,0-.12-.17l-.24-.36a9.5,9.5,0,0,1-.49-1c.15.33-.14-.39-.19-.56a10.16,10.16,0,0,1-.26-1.09c-.07-.37,0,.06,0-.17s0-.36,0-.53c0-.35,0-.7,0-1a12.45,12.45,0,0,1,.2-2.17C34.77,209,31.88,208.18,31.56,210.08Z"/><path class="cls-4" d="M15,196.13c-4.15-1.52-13.83-7.75-13.46-12.69,5.85-.1,11.43-16.28,12.45-14.83,6.34,9.06,6,8.15,9.92,10.32C68.91,203.89,15,196.13,15,196.13Z"/><path class="cls-4" d="M15.37,194.69a28.68,28.68,0,0,1-7.64-4.58c-1.9-1.54-4.85-3.94-4.72-6.67l-1.5,1.5c4-.17,6.66-4.37,8.53-7.4,1.08-1.76,2.05-3.58,3.05-5.4.35-.64.7-1.28,1.1-1.89l.21-.33c.17-.23-.06.19,0,0a.59.59,0,0,1,.17-.18c-.13.06-.18.19-.33.21s-1.36-.29-1.37-.22c0,.43,1.16,1.65,1.43,2,.44.63.89,1.26,1.35,1.88.65.89,1.32,1.79,2,2.64a12.08,12.08,0,0,0,2.91,2.61c4.08,2.5,8.36,4.61,12.33,7.32a41,41,0,0,1,4.63,3.56,18,18,0,0,1,1.51,1.52,5,5,0,0,1,.83,1.14c.09.14.32.62.26.49s.09.31.13.44c.1.34,0-.3,0,.16s.07-.21,0,.16,0-.07,0,.11a.72.72,0,0,1-.11.19c-.22.2.18-.21,0,0s-.23.22-.34.33c.32-.3-.07,0-.23.13s-.32.18-.49.26.08,0,0,0l-.34.13a11.05,11.05,0,0,1-1.36.39,17.18,17.18,0,0,1-3.05.46,62.77,62.77,0,0,1-7.88.07q-3.6-.16-7.2-.54c-.88-.09-1.75-.19-2.63-.3l-.89-.11-.32,0c-.07,0,.46.06.11,0l-.19,0a1.54,1.54,0,0,0-1.84,1.05,1.49,1.49,0,0,0,1,1.84c3.46.5,7,.83,10.43,1a72.52,72.52,0,0,0,8.34.08,20.12,20.12,0,0,0,7.08-1.37c1.84-.82,3.19-2.43,2.82-4.54-.44-2.56-2.81-4.61-4.7-6.17a91.11,91.11,0,0,0-14.16-9.12c-.6-.32-1.21-.63-1.8-1-.24-.14-.48-.28-.71-.43a1.88,1.88,0,0,1-.51-.38,24.56,24.56,0,0,1-3.58-4.29l-1.34-1.88A12.11,12.11,0,0,0,15,167.5a1.75,1.75,0,0,0-2.29-.07c-1.07.79-1.71,2.34-2.33,3.47-1,1.92-2.08,3.84-3.25,5.68a16.66,16.66,0,0,1-3.85,4.62,3.57,3.57,0,0,1-1.74.74,1.52,1.52,0,0,0-1.5,1.5C-.15,187,2.86,190,5.36,192a33,33,0,0,0,9.21,5.55C16.38,198.26,17.16,195.36,15.37,194.69Z"/><path class="cls-6" d="M31.16,188.47h0c-8.43-3.7-13.35-14.51-21.91-15.54h0c-2.95,3.73-3.23,5.13-5,7.35,2.9,4,18.89,21,22.45,13.35C28.15,192,30.33,190.41,31.16,188.47Z"/><path class="cls-4" d="M25.49,191.18c-8.06,1.1-14.37,7.59-16.76,14.76,9,2.66,11.52,9.77,18.38,15.21.89-8.13,5.52-11.31,12.41-14C39.52,207.15,51.39,187.63,25.49,191.18Z"/><path class="cls-4" d="M25.09,189.73C16.65,191,10,197.66,7.28,205.55a1.51,1.51,0,0,0,1,1.84,21.51,21.51,0,0,1,9.57,6.42c2.66,2.87,5.08,5.93,8.15,8.4a1.52,1.52,0,0,0,2.56-1.06,13.46,13.46,0,0,1,2.94-7.36,17.78,17.78,0,0,1,6.1-4.24c1.19-.55,2.67-.81,3.36-2a20.78,20.78,0,0,0,.94-1.89c2-4.56,3.12-10.68-1.5-14.09-4.11-3-10.21-2.53-15-1.89a1.54,1.54,0,0,0-1.5,1.5,1.52,1.52,0,0,0,1.5,1.5c3.49-.47,7.27-.82,10.71.15a6,6,0,0,1,4.06,3.07c.08.15,0,0,.11.27s.14.43.19.65a3,3,0,0,1,.15.94,10.26,10.26,0,0,1,0,1.24c0,.18,0,.37,0,.55a2.61,2.61,0,0,1-.07.49,17.42,17.42,0,0,1-.59,2.34c-.1.34-.22.68-.35,1s-.14.37-.22.55-.11.27,0,0c0,.1-.08.2-.13.3a20.45,20.45,0,0,1-1.11,2.19l.9-.69c-3.33,1.31-6.69,2.85-9.21,5.45a16.71,16.71,0,0,0-4.3,10l2.56-1.06c-3.24-2.61-5.76-5.89-8.61-8.89a23.9,23.9,0,0,0-10.43-6.7l1,1.84c2.4-7,8.31-12.62,15.72-13.72C27.79,192.34,27,189.45,25.09,189.73Z"/><path class="cls-4" d="M175.58,178.05c3.87-1.33,11.55-5.59,15-6.07,0,11,9.73,12,8.62,13.43-4.75,6-21.12,14.33-23,13.91C146,192.41,175.58,178.05,175.58,178.05Z"/><path class="cls-4" d="M176,179.5c2.64-.93,5.16-2.2,7.69-3.36a28.75,28.75,0,0,1,7.29-2.71l-1.9-1.45a14.57,14.57,0,0,0,3.7,10.05c1.51,1.61,3.39,2.56,5.17,3.79,0,0,0-.18.1.08a2,2,0,0,1-.27-.72c0-.48.45-.9-.06-.34-.25.28-.51.56-.78.83a33.41,33.41,0,0,1-3.89,3.24,80.76,80.76,0,0,1-9.66,5.91,45.44,45.44,0,0,1-7,3c.29-.09,0-.07.14,0,.46.24-.75-.2-.74-.19l-.85-.22c-1.26-.32-2.51-.69-3.74-1.12a19.46,19.46,0,0,1-4.7-2.28,5.86,5.86,0,0,1-2.07-2.25,3.13,3.13,0,0,1-.17-1.94,10.28,10.28,0,0,1,3.26-4.63,36.88,36.88,0,0,1,8.87-5.88c1.74-.85.22-3.44-1.51-2.59-5.65,2.74-18.43,10.65-12,18.1,2.49,2.88,6.69,4.23,10.22,5.21,1.57.44,3,1,4.61.54a25.56,25.56,0,0,0,3.66-1.45,82,82,0,0,0,10.41-5.77,56.72,56.72,0,0,0,4.93-3.53,17.56,17.56,0,0,0,3.66-3.54c1.6-2.35-2-3.68-3.47-4.69a11.31,11.31,0,0,1-4.82-9.65,1.52,1.52,0,0,0-1.9-1.44,29.25,29.25,0,0,0-7.36,2.72c-2.52,1.14-5,2.43-7.61,3.34C173.38,177.24,174.16,180.14,176,179.5Z"/><path class="cls-6" d="M197.31,181.94a11.93,11.93,0,0,1-4.79-6.46c-5.85,3.41-30.7,17-27.14,18.83C175.46,191.13,187.92,191.33,197.31,181.94Z"/><path class="cls-4" d="M130.63,203.25c10.53,3.15,19.91,5.54,29.29,9.39,4.64,1.91,30.22,10,31.43,2.88-11.15-3.66-9.41-9.41,1.67-13.47-7.92-1.45-21.5-2.45-24.74-5.92C168.28,196.13,102.06,194.69,130.63,203.25Z"/><path class="cls-4" d="M130.23,204.69c6.72,2,13.49,3.84,20.15,6,4.2,1.39,8.26,3.16,12.46,4.55,3.58,1.18,7.21,2.2,10.89,3a51,51,0,0,0,11.46,1.58c2.83,0,6.95-.58,7.61-4a1.55,1.55,0,0,0-1.05-1.85c-1.84-.61-7-2.29-6.42-4.93a5.23,5.23,0,0,1,2.19-2.68,24,24,0,0,1,5.9-3c1.24-.47,1.59-2.61,0-2.9-5.41-1-10.89-1.49-16.28-2.61a25.66,25.66,0,0,1-6.36-1.92c-.92-.47-1.62-1.38-2.67-1.44-3.74-.21-7.53-.1-11.27-.09-6.39,0-12.78.12-19.16.5-2.82.17-5.64.4-8.44.8a17.37,17.37,0,0,0-5.55,1.4c-1.69.87-2.29,2.73-.85,4.17,1.83,1.84,5,2.56,7.39,3.28,1.85.56,2.64-2.33.8-2.89a24.8,24.8,0,0,1-5.44-2.07c-.19-.12-.8-.54-.45-.28-.31-.23-.3-.45-.21-.17-.1-.3,0,.34,0,.28,0,.35,0,.31-.25.58.3-.36-.22.05.14-.13.16-.08.77-.37.32-.19a13.4,13.4,0,0,1,1.77-.54,36.64,36.64,0,0,1,5-.78,260.59,260.59,0,0,1,28.77-.95c2.52,0,5,0,7.55.08l-1.06-.43c2.66,2.71,7.39,3.38,10.94,4,4.8.89,9.66,1.4,14.46,2.27v-2.9c-3.66,1.37-9.51,3.64-10.25,8.13-.76,4.69,5.09,7.06,8.59,8.24l-1.05-1.85a1.81,1.81,0,0,1-.14.48c-.17.32,0,0-.22.29s0,.05-.33.25a3.07,3.07,0,0,1-.57.27,10.78,10.78,0,0,1-3.9.47A50.29,50.29,0,0,1,174,215.3c-3.46-.8-6.88-1.77-10.26-2.88-3.81-1.26-7.49-2.87-11.3-4.16-7.06-2.39-14.26-4.32-21.4-6.46C129.17,201.25,128.38,204.14,130.23,204.69Z"/><path class="cls-6" d="M185.33,209.48a4.14,4.14,0,0,1,1.44-2.4c2.91-2.59-11.7-3.48-26.49-11-11.88-4.06-16.17-.85-28-4.38-4.19,11.95,51.53,20.17,54,19.56A12,12,0,0,1,185.33,209.48Z"/><path class="cls-7" d="M127.68,190.52c8.28-.37,39.94,5.22,39.94,5.22,0,7.6-9.11,10.15-12.91,5.69-8.23-9.6-12.11,3.28-17.08,2.82-4.1-.39-4.74-9.32-7-5.81-2.39,3.67-2.14,17.06-6,20.17-11.27,9.15-7.16-21-17.19-17.66C107.44,201,119.4,190.88,127.68,190.52Z"/><path class="cls-6" d="M39.51,184.86c-13.24,8.77-21.85,9.18-27.66,24,3.9,2.45,4.58,3.34,9.18,8.47C24.15,214.39,63.69,165.86,39.51,184.86Z"/><path class="cls-8" d="M32.76,193.24c11.38,4.69,5.74,24.94,15.19,23.52,4.77-.72,2.76-4.85,4.35-7.62,3.75-6.53,12.34-6,12.86.59.59,7.37,13.07,2.59,13.12,1.49C79.65,180.4,15.07,186,32.76,193.24Z"/><path class="cls-8" d="M32,194.54c6,2.58,6.82,9.79,8.14,15.43.56,2.38,1.23,5.11,3.06,6.86a6.25,6.25,0,0,0,8.2,0c1.24-1.2,1.43-2.91,1.62-4.53a6.58,6.58,0,0,1,2.14-4.38c2-1.9,6-2.93,7.81-.21.93,1.38.6,3.15,1.38,4.61a5.51,5.51,0,0,0,3.24,2.59c2.62.84,5.71.26,8.24-.62A11.37,11.37,0,0,0,78.66,213c1.11-.77,1.16-1.72,1.14-3a19.9,19.9,0,0,0-1.64-7.68,22.56,22.56,0,0,0-9.66-10.12c-8.48-4.89-19.12-6.52-28.79-6-3.13.15-6.8.37-9.6,1.94a3.26,3.26,0,0,0-1.92,2.69,3.7,3.7,0,0,0,2,2.9,13.91,13.91,0,0,0,2.16,1.05c1.78.74,2.56-2.16.8-2.89.3.12-.22-.1-.28-.13l-.47-.23c-.26-.13-.52-.29-.77-.44-.06,0-.41-.31-.19-.13s-.09-.09-.13-.13a1.14,1.14,0,0,1-.19-.19c-.07-.07.19.34,0,0s0,.06,0,.11c0-.24,0-.13,0,.15.07-.38.07.34,0,0,0-.09-.12.51,0,.13.06-.22-.24.32-.05.08a.49.49,0,0,1,.16-.16c.31-.14-.31.18,0,0l.54-.31a3.36,3.36,0,0,1,.33-.16c-.44.2,0,0,.14,0a16.47,16.47,0,0,1,1.82-.53,25.53,25.53,0,0,1,4.64-.63c8.72-.6,18.18.62,26.11,4.45,3.84,1.86,7.42,4.45,9.63,8.09a16,16,0,0,1,2.15,6c.07.51.11,1.06.13,1.59,0,.28,0,.55,0,.83s0,.28,0,.42c0,.3-.13.4,0,.28,0,0,.25-.44.27-.48-.07.15-.18,0,0,0s-.13.09-.3.18a9.71,9.71,0,0,1-1,.51c-2.07.84-4.74,1.55-7,1a2.48,2.48,0,0,1-1.94-1.62,19.28,19.28,0,0,1-.36-2.15,7.1,7.1,0,0,0-1-2.36c-4.44-6.43-14.34-1.41-15.27,5.16-.16,1.08,0,2.79-.92,3.59a3.53,3.53,0,0,1-3.23.44,2.91,2.91,0,0,1-.69-.44,3.5,3.5,0,0,1-.79-1.05,13,13,0,0,1-1.15-3.09c-1.47-5.48-1.93-11.78-6.11-16.06A11.68,11.68,0,0,0,33.51,192a1.55,1.55,0,0,0-2,.54A1.52,1.52,0,0,0,32,194.54Z"/><path class="cls-9" d="M28,173.38c-4,5.16-8.27,16.09-.77,18.9,9.13,3.42,20.75-4.8,48,15.55,15,11.21,31.06-8.41,45.33-15.13,14.77-7,33.61,2.42,49.59,2.25,21.06-.23,5.57-14.74,1.94-16.74"/><path class="cls-9" d="M26.67,172.62a26.34,26.34,0,0,0-4.54,9.28c-.81,3.15-.95,6.84,1.23,9.48,2.82,3.44,8.08,3.39,12.14,3.42a57.28,57.28,0,0,1,14.76,1.57c8.4,2.26,16,6.8,23,11.88,3.41,2.48,6.88,4.32,11.18,4.46a24.53,24.53,0,0,0,11-2.64c7.64-3.51,14.06-9.12,21.17-13.51a30.94,30.94,0,0,1,11.76-4.62,48.6,48.6,0,0,1,14.09.46c9.49,1.45,19,4.36,28.66,4,4.76-.17,12.55-1.56,11.17-8.08-.86-4-4.45-7.64-7.6-10.12a14.62,14.62,0,0,0-1.87-1.32c-1.68-.94-3.2,1.65-1.51,2.6a7.42,7.42,0,0,1,.7.44l.39.28.28.21a27.25,27.25,0,0,1,2.13,1.88,20.42,20.42,0,0,1,3.75,4.69,6.35,6.35,0,0,1,.89,2.43c0-.24,0,.92,0,.62a1.67,1.67,0,0,1-.33.94,4.15,4.15,0,0,1-1.84,1.38,14.53,14.53,0,0,1-4.52,1c-17.67,1.47-36.15-10-53.27-1.79-7.11,3.41-13.17,8.69-19.85,12.82-5.94,3.67-13.34,7.25-20.29,4.2A32.16,32.16,0,0,1,73.8,205c-2.09-1.49-4.24-2.92-6.44-4.25a72,72,0,0,0-10.87-5.42,50.07,50.07,0,0,0-16.31-3.41c-2-.08-4-.05-6.08-.09a22.17,22.17,0,0,1-4.88-.46c-2.33-.54-4.2-1.75-4.57-4.28-.45-3,.79-6.31,2.14-9a25.81,25.81,0,0,1,2.47-3.94c1.17-1.54-1.44-3-2.59-1.52Z"/><path class="cls-10" d="M73.85,184.08C66.4,200.59,113.14,194.55,98,184"/><path class="cls-10" d="M72.56,183.32c-1.35,3.05-1.49,6.5,1.1,9,2.41,2.28,5.93,3,9.13,3.39a33.27,33.27,0,0,0,11.07-.77c2.78-.66,6.09-1.76,7.83-4.19,2.23-3.1-.34-6.18-2.9-8-1.58-1.12-3.08,1.48-1.52,2.59a8.87,8.87,0,0,1,1.48,1.27l.3.34.08.13c.13.2.38.73.27.44a3.66,3.66,0,0,1,.17.59c-.12-.55,0,.45,0,.18s-.08.27-.12.39.16-.28,0,0l-.19.32c-.19.33.13-.06-.24.3-.2.18-.38.37-.59.53.28-.22-.27.2-.39.27s-.53.33-.8.47a16,16,0,0,1-3.55,1.32,30.1,30.1,0,0,1-9.29.93,16.16,16.16,0,0,1-7.84-2,2.39,2.39,0,0,1-.6-.45,7.17,7.17,0,0,1-.67-.68c-.13-.15.07.13-.12-.17l-.24-.39c-.06-.1-.21-.47-.09-.17a3.26,3.26,0,0,1-.15-.44,3.84,3.84,0,0,1-.11-.46c0-.22,0,.2,0-.21a8,8,0,0,1,0-1c0-.24,0,.23,0,0a2.33,2.33,0,0,1,.05-.28c0-.2.09-.39.14-.58a8.22,8.22,0,0,1,.39-1.11c.77-1.75-1.81-3.27-2.59-1.51Z"/><path class="cls-5" d="M28.9,175.28c5.1,9.77,136.41,12.32,143.17,2.93C193.9,147.92,161,140.6,143.34,139s-59.41-1.44-82.78-3.6C36.69,133.17,15.37,149.4,28.9,175.28Z"/><path class="cls-5" d="M27.6,176c1,1.82,3.52,2.62,5.34,3.2a66,66,0,0,0,10,2.18,317.12,317.12,0,0,0,32.14,3.08q19.34,1.09,38.73,1.08c11.76,0,23.54-.22,35.27-1.11,4.39-.33,8.78-.75,13.13-1.44a34,34,0,0,0,8.56-2.16,6.46,6.46,0,0,0,2.2-1.44,28.87,28.87,0,0,0,3.24-4.85A41,41,0,0,0,179,169c2.27-5.65,2.68-12.15-.81-17.4-3.18-4.79-8.44-7.69-13.68-9.69a75.06,75.06,0,0,0-17.44-4.05c-6.31-.8-12.69-1-19-1.29-8.83-.34-17.67-.54-26.51-.79-9.14-.25-18.28-.53-27.42-1-4-.2-7.89-.44-11.83-.78a55.68,55.68,0,0,0-12.31.09c-7.4,1-14.85,4-20.12,9.43a23.91,23.91,0,0,0-6.43,19.75A38.44,38.44,0,0,0,27.6,176c.89,1.71,3.48.2,2.59-1.52-3.57-6.9-5.58-15.18-2.41-22.62,2.68-6.3,8.51-10.66,14.82-12.93a39.2,39.2,0,0,1,11-2.22,87.2,87.2,0,0,1,11.65.51c8.36.61,16.75.93,25.12,1.21,16.41.54,32.86.59,49.25,1.71a101.47,101.47,0,0,1,16.18,2.26c5.44,1.27,11,3.08,15.54,6.37,4.07,2.94,6.69,7.25,6.47,12.37a23.55,23.55,0,0,1-2.86,9.59,49,49,0,0,1-3.43,5.68c-.12.17-1.05,1.32-.54.79,0,0-.11.15-.14.16s-.55.41-.1.1a8.2,8.2,0,0,1-1,.61l-.31.14-.05,0-.78.28a33.51,33.51,0,0,1-3.82,1,97.7,97.7,0,0,1-11,1.54c-10.75,1-21.56,1.33-32.35,1.45q-18.87.19-37.72-.62c-11.16-.47-22.34-1.16-33.44-2.51-3.91-.47-7.89-1-11.83-1.87-1.48-.32-3-.67-4.4-1.12-.56-.18-1.12-.38-1.67-.59l-.08,0-.34-.15-.61-.31c-.18-.09-.35-.21-.53-.31-.46-.27.05.1-.17-.12l-.33-.32c-.08-.08.2.33,0-.07C29.28,172.82,26.68,174.34,27.6,176Z"/><path class="cls-11" d="M66.41,154.22a116.39,116.39,0,0,0,25.83,4.93,107.24,107.24,0,0,0,30.19-1.47,69.69,69.69,0,0,0,16-5.22c1.74-.82.22-3.41-1.52-2.59-8.85,4.18-18.69,6-28.42,6.55a119.93,119.93,0,0,1-28-1.84,105.06,105.06,0,0,1-13.2-3.25c-1.84-.59-2.63,2.31-.79,2.89Z"/><path class="cls-12" d="M8.39,130.35l1.18,6.87C7.7,112.88,5.84,88.55,3.29,68.83c.53-5,1.17-10.28,4.26-14.23s9.58-5.7,13.17-2.19c2.84,2.77,2.7,7.32,2.06,11.23A78.45,78.45,0,0,1,10.61,94.46c1.18-4.93,7.07-7.79,12-6.6s8.64,5.59,10.14,10.43,1.11,10.09.15,15.07A55,55,0,0,1,25.83,132c-1.64,2.65-3.94,5.34-7,5.58S12.67,133.83,8.39,130.35Z"/><path class="cls-12" d="M45.12,118.3l-1,5.44c1.32-25.64-.23-51.42-3.94-71.33,1.51-4.08,3.09-8.28,6.06-11.46S53.93,35.8,58,37.35c3.79,1.43,6,5.54,6.44,9.58S63.72,55,62.57,58.87c-3.28,11-7.34,22.49-16.14,29.87,1.25-4.83,8.08-6.37,12.3-3.71s6,8,6.39,12.93-.43,10,0,15,2.38,10.23,6.69,12.74"/><path class="cls-12" d="M83.34,34.91a362.44,362.44,0,0,0,6.5,89.23,27.18,27.18,0,0,0,16.56-11.51"/><path class="cls-12" d="M86,72.65l7-2.72"/><path class="cls-12" d="M84.21,35.8a77.78,77.78,0,0,1,22.66-13.6"/><path class="cls-12" d="M116,111.32l6.53-94.27a282.52,282.52,0,0,1,20.22,62.62"/><path class="cls-12" d="M122.27,62.08l10.27-9.67"/><path class="cls-12" d="M150.25,77.79a643.39,643.39,0,0,1-.94-66.46"/><path class="cls-12" d="M161.23,8.6a142.94,142.94,0,0,0-10.66,35.27l12.2,30.28"/><path class="cls-12" d="M177.94,77.48,174.83,9.29a42,42,0,0,0,25.09-2.17"/><path class="cls-12" d="M176.35,40.63l11.47-3.32"/><path class="cls-12" d="M196.65,79l9.46-74a608.91,608.91,0,0,0,3,79.2"/><path class="cls-12" d="M199.87,51.51,211.35,50"/><path class="cls-12" d="M228.47,8.71c-.8-2.75-3.1-5.19-5.95-5.49s-5.88,2.1-5.67,5c.26,3.54,4.37,5.15,7.2,7.28,5,3.77,6.66,10.55,7,16.81.7,12.85-2.65,25.55-6.33,37.88-1.61,5.37-3.82,11.34-9,13.55a3.41,3.41,0,0,1-.58-3.29"/><path class="cls-12" d="M231.75,88.32q4-42,10.6-83.63"/><path class="cls-12" d="M233.47,3.7a125.39,125.39,0,0,0,19.43-2"/></g></g></svg>