<svg xmlns="http://www.w3.org/2000/svg" viewBox="0 0 118.08 102.75"><defs><style>.cls-1,.cls-9{fill:#a67121;}.cls-1{stroke:#a67121;}.cls-1,.cls-10,.cls-2,.cls-3{stroke-miterlimit:10;}.cls-1,.cls-2,.cls-3{stroke-width:0.36px;}.cls-2{fill:#f7eeeb;stroke:#f7eeeb;}.cls-3{fill:#a0d16b;}.cls-11,.cls-3{stroke:#a0d16b;}.cls-4{fill:#f8e700;}.cls-5{fill:#d12c24;}.cls-6{fill:#e5c982;}.cls-7{fill:#d95b5b;}.cls-8{fill:#ff0;}.cls-10,.cls-11{fill:none;}.cls-10{stroke:#f8e700;}.cls-11{stroke-linecap:round;stroke-linejoin:round;stroke-width:3.36px;}</style></defs><g id="Layer_2" data-name="Layer 2"><g id="Layer_18" data-name="Layer 18"><path class="cls-1" d="M2.78,71.93c4.48,2.77,50.34,29.23,50.34,29.23L63.69,47,1.19,64.18Z"/><polygon class="cls-2" points="53.12 101.16 52.6 92.09 5.46 65.61 63.89 48.46 63.79 58.7 53.12 101.16"/><path class="cls-3" d="M8.93,64.57,5,69.27a4.24,4.24,0,0,1,5.74,2c.27.66.37,1.38.66,2A2,2,0,0,0,13,74.58c1.26,0,1.87-1.66,3.07-2.06A2.43,2.43,0,0,1,18.79,74a13.91,13.91,0,0,1,.74,3.29A3.63,3.63,0,0,0,21.31,80c2.19,1,4.53-1.92,6.82-1.29,1.67.46,2.29,2.45,2.66,4.15s1,3.68,2.7,4.1,3.18-1,4.31-2.29a5,5,0,0,1,2.51,3A12.31,12.31,0,0,0,42,91.37c.87,1,2.48,1.62,3.59.85.44-.31.76-.8,1.28-1,.85-.28,1.71.53,2,1.39s.21,1.79.49,2.65c.35,1.07,3.64,2,4.75,1.81S64.68,56.22,63.45,50L9.65,60.36A16,16,0,0,0,8.93,64.57Z"/><path class="cls-4" d="M10.15,63.94,8,67.16l1.75,1.36a1.79,1.79,0,0,1,2.62-1.45,1.8,1.8,0,0,1-.24,3l2.71,1.77a2.47,2.47,0,0,1,4.55,1.93l3.11,3.53a1.44,1.44,0,0,1,.91-2.05,1.82,1.82,0,0,1,2,1.23,2.5,2.5,0,0,1-.61,2.42A29.43,29.43,0,0,1,27.68,82,2.54,2.54,0,0,1,31,79.73a2.54,2.54,0,0,1,.85,3.9A7.36,7.36,0,0,1,36,85.55a1.63,1.63,0,0,1-.15-2.27,2,2,0,0,1,2.33-.39,2.58,2.58,0,0,1,1.32,2,3.06,3.06,0,0,1-.76,2.28c1.3.53,2.55,1.2,4,1.65a1.82,1.82,0,0,1,1-3A2.38,2.38,0,0,1,46,87.63a6.93,6.93,0,0,1,0,3,19.76,19.76,0,0,1,5.11,2.86,1.82,1.82,0,0,1,0-2.67,1.87,1.87,0,0,1,2.65.43,1.93,1.93,0,0,1-.67,2.62l1.74.62a20.23,20.23,0,0,1,1.42-5.64,3.83,3.83,0,0,1-3-1.87,2.62,2.62,0,0,1,.7-3.32,2,2,0,0,1,3,1l1-5.36a2.13,2.13,0,1,1,.69-2.54l.87-6A1.87,1.87,0,0,1,56.76,70a2.24,2.24,0,0,1,1.09-2.72,2.74,2.74,0,0,1,3,.5l-.11-4.18-2.51,1c-.73-1.81-1-2.83.58-3.92.85,0,1.63-1.1,2.18.52A31.66,31.66,0,0,1,62,57.24c-1.37-.08-3.25-1.5-3-2.85a2.54,2.54,0,0,1,3.09-1.92l.39-4.22c.21.74-1,1.22-1.57.69a2,2,0,0,1-.2-2.17c-8.5,1.73-17,3.47-25.67,4.15-4.06.31-8.2.41-12.1,1.58s-7.66,3.61-9.3,7.35c.2,1.16,1.49,1.73,2.56,2.21s2.26,1.44,2,2.58c-.24.92-1.29,1.32-2.13,1.76s-1.68,1.45-1.16,2.25a1.5,1.5,0,0,0,1.82.34c.61-.27,1.1-.75,1.69-1.08,2-1.14,4.5-.24,6.62.66a4.8,4.8,0,0,1,1.75,1.09A1.6,1.6,0,0,1,27,71.58c-.56.77-1.75.57-2.68.32s-2.16-.35-2.61.5.56,2,1.57,1.93a3.74,3.74,0,0,0,2.47-1.57L32.67,76a1,1,0,0,0-1.23.88A2,2,0,0,0,32,78.41a2.33,2.33,0,0,0,2.51.85c.86-.37,1-1.9.1-2.16a2.32,2.32,0,0,1,2.55.24c.76.5,1.36,1.22,2.13,1.7a8.1,8.1,0,0,0,3.81.89,10.1,10.1,0,0,1,3.87.69,3.15,3.15,0,0,1,1.94,3.13c-.25,1.48-1.9,2.8-1.27,4.15a1.66,1.66,0,0,0,2.38.51,2.17,2.17,0,0,0,.65-2.49,3.22,3.22,0,0,0-2-1.8,6.75,6.75,0,0,0,3.6-6.25c0-1-.24-2.34.65-2.89s2.27.37,3.35,0a1.42,1.42,0,1,0-1.84-1,38.06,38.06,0,0,0-3.8-4.83c-.51-1.8.71-3.81,0-5.54S48,61.4,46.29,61.06a92.9,92.9,0,0,0-26.55-1.68c-3.15.31-6.56,1-8.56,3.46A2.7,2.7,0,0,0,10.15,63.94Z"/><path class="cls-5" d="M62.19,51.5c-1.26,6.6-5.82,23.73-8.24,30a1.09,1.09,0,0,1-.8-1.25,2.19,2.19,0,0,1-2.5-.51A9.42,9.42,0,0,1,44,82.27a21.23,21.23,0,0,1-7.14-1.44,59.12,59.12,0,0,1-10.13-4.66c-1.65-1-13.93-8-14.38-12.11-.37-3.37,9.43-2.51,12.17-4.51,4.21-3.08,9.49-4.27,14.67-4.85S49.61,54.07,54.7,53C56,55.39,59.12,47.49,62.19,51.5Z"/><path class="cls-1" d="M1.79,59.46C6.28,62.24,52.14,88.7,52.14,88.7L62.71,34.58.21,51.72Z"/><polygon class="cls-2" points="52.14 88.7 51.62 79.63 4.48 53.15 62.91 36 62.8 46.24 52.14 88.7"/><polygon class="cls-6" points="37.71 52.47 37.07 36.81 39.15 52.68 37.71 52.47"/><polygon class="cls-7" points="36.39 38.79 36.5 37.96 35.88 37.94 36.11 37.19 36.45 36.55 36.24 35.78 36.92 35.08 37.48 36 37.33 37.1 37.61 37.77 37.84 38.43 37.65 39.11 36.39 38.79"/><path class="cls-8" d="M67.62,86.47c11.54-4.56,18.52-14.55,26.66-23.11,1.48,7,.13,29.1-26.69,37.36-23.17,7.13-42.14-6.26-39.29-14.07C29.64,88.94,50.71,93.17,67.62,86.47Z"/><path class="cls-9" d="M94.06,63.58a13.75,13.75,0,0,0,.38-3.89,2.8,2.8,0,0,1,2.62.42,3,3,0,0,1-.72,2.43A3.27,3.27,0,0,1,94.06,63.58Z"/><path class="cls-9" d="M28.2,86.72a3.71,3.71,0,0,0-.15,2.35l.67-1.21.87.4A2,2,0,0,0,28.2,86.72Z"/><path class="cls-10" d="M34.05,91.57a37.93,37.93,0,0,0,44.39-2.49,56.55,56.55,0,0,0,8.74-9.22A29.67,29.67,0,0,0,92.39,71"/><path class="cls-11" d="M13.9,5.58A120.74,120.74,0,0,0,23.29,42.8a48.91,48.91,0,0,1,14.82-6.49"/><path class="cls-11" d="M42,9c2.39,7.85,4.8,15.75,8.56,23.05a9.08,9.08,0,0,0,2.21,3.07,3.39,3.39,0,0,0,3.55.58c1.39-.72,1.79-2.48,2-4a53.3,53.3,0,0,0-5-29.47"/><path class="cls-11" d="M66.23,81.59c2.28-24.1,4.56-48.22,5.11-72.42l7.19,63.32c3.7-22.16,1.79-45.37,9-66.63"/><path class="cls-11" d="M97.82,14.12c1-.63.67-2.42-.43-2.91a2.86,2.86,0,0,0-3.2,1,8.39,8.39,0,0,0-1.41,3.3C89.37,28.41,85.92,41.76,87.86,55c.24,1.59.78,3.46,2.31,4,1.8.59,3.52-1.16,4.26-2.9s1.17-3.77,2.68-4.9"/><path class="cls-11" d="M106.25,8.39Q102.35,30,100.36,52"/><path class="cls-11" d="M100.9,38.89l8.47-7"/><path class="cls-11" d="M116.4,1.68a316.57,316.57,0,0,0-8.11,51.94"/></g></g></svg>