<svg xmlns="http://www.w3.org/2000/svg" viewBox="0 0 118.29 111.96"><defs><style>.cls-1,.cls-16{fill:#a67121;}.cls-1{stroke:#a67121;}.cls-1,.cls-14,.cls-2,.cls-4{stroke-miterlimit:10;}.cls-1,.cls-2,.cls-4{stroke-width:0.36px;}.cls-2{fill:#f7eeeb;stroke:#f7eeeb;}.cls-3{fill:#ebe0dd;}.cls-4{fill:#a0d16b;}.cls-4,.cls-9{stroke:#a0d16b;}.cls-5{fill:#f8e700;}.cls-6{fill:#d12c24;}.cls-7{fill:#e5c982;}.cls-8{fill:#d95b5b;}.cls-14,.cls-18,.cls-9{fill:none;}.cls-18,.cls-9{stroke-linecap:round;stroke-linejoin:round;}.cls-9{stroke-width:3.36px;}.cls-10{fill:#ffffa6;}.cls-11{fill:#fcf400;}.cls-12{fill:#ff0;}.cls-13{fill:#fffdf0;}.cls-14{stroke:#f8e700;}.cls-15{fill:#ffffcf;}.cls-17{fill:#ede8cc;}.cls-18{stroke:#fffdf0;stroke-width:0.2px;}</style></defs><g id="Layer_2" data-name="Layer 2"><g id="Layer_18" data-name="Layer 18"><path class="cls-1" d="M52.46,79.25a12.87,12.87,0,0,1,5.16-1.2L63.69,47,1.19,64.1l1.59,7.75C4.62,73,13.44,78.13,23.2,83.78c1.48-4,5.87-3.58,8.46-3.5A3.48,3.48,0,0,1,36.72,80c1.86-1.16,4.58-1.5,6.38-.09a34.84,34.84,0,0,1,7.14.37C51,79.92,51.72,79.59,52.46,79.25Z"/><path class="cls-2" d="M5.46,65.54l28,15.72c3-3.11,8-4.32,11.66-1.66a6.32,6.32,0,0,0,2.24-.2c-.47,0-.42,0,.15,0a3.9,3.9,0,0,1,2.63.56c2.42-1.89,6.35-.59,7.81,2l5.85-23.27.1-10.24Z"/><path class="cls-3" d="M22.9,84.09a69.48,69.48,0,0,1,2-7.08c.27-.87,2.41-1.15,4.7-1.22s6.45.15,6.85,1c-.62-1.22,2-1.65,4-1.8,2.4-.18,7.61-.09,8.28,1-.9-1.11,3.61-2.71,9.22-1.73,1.18.21-.39,5.7,0,8.11a8.87,8.87,0,0,0-8.68-.07,24.19,24.19,0,0,0-7.4-.87c-4.13.18-4.89,1.32-4.89,1.32a19,19,0,0,0-7.73-1C24.1,82,23.54,84,22.9,84.09Z"/><path class="cls-4" d="M23.79,78.56a7.91,7.91,0,0,1,1.54-2.62,4.39,4.39,0,0,1,2.33-2A19.36,19.36,0,0,1,30,73.36,8.58,8.58,0,0,1,36,74.66c.09,0,.49.33.79.54a7.42,7.42,0,0,1,2.61-1.61A6.94,6.94,0,0,1,45.2,74a5.17,5.17,0,0,1,2,1.27c.14-.09.54-.31.76-.42l.67-.28c.37-.09.45-.13.23-.14a19.69,19.69,0,0,1,4.31-2.08,6,6,0,0,1,2.91-.26A11.56,11.56,0,0,1,59,73.17a4.16,4.16,0,0,1,1.09.75c2.17-10.42,4-21.05,3.39-24L9.65,60.28a16,16,0,0,0-.72,4.21L5,69.19a4.24,4.24,0,0,1,5.74,2c.27.66.37,1.38.66,2A1.93,1.93,0,0,0,13,74.5c1.26,0,1.87-1.66,3.07-2.06a2.43,2.43,0,0,1,2.71,1.5,13.44,13.44,0,0,1,.74,3.29A3.61,3.61,0,0,0,21.31,80a3,3,0,0,0,2.27-.07A8.44,8.44,0,0,1,23.79,78.56Z"/><path class="cls-5" d="M55.26,71a3.45,3.45,0,0,1,1.37-1.79c-.11-2.2,2.76-3.06,4.21-1.59,0-1.39-.08-2.79-.11-4.18l-2.51,1c-.73-1.81-1-2.83.58-3.92.85,0,1.63-1.1,2.18.52a31.66,31.66,0,0,1,1.05-4c-3.82-.26-3.94-5.39.07-4.77.12-1.27.23-2.55.35-3.82-1.15,1.52-2.55-.59-1.73-1.88-13.24,5.09-41,.49-47.07,13.08a1.83,1.83,0,0,0,.41.85c-2.85,1.21-4.41,4-6.05,6.46l1.75,1.36c.62-3.59,5.39-.51,2.38,1.54l2.71,1.77c1.33-2.71,5.57-.92,4.55,1.93l3.05,3.46c-.26-1.68,1-3.41,2.56-4.29.83-.28,1-.37.47-.28a11.11,11.11,0,0,1,8.88-.15c-.94-.43.71.24,1,.52a9.5,9.5,0,0,1,1-.49c-.73.33,1.2-.7.37-.19,1.55-1.18,5.55-1.72,6.46-1a8.8,8.8,0,0,1,4.6,1.89c1.16-.84,4.07-2.14,4.84-1.9C53.48,71.17,54.37,71.06,55.26,71Z"/><path class="cls-6" d="M62.19,51.42C60.93,58,60.12,65.9,57.7,72.16c-.06,0-3-1.63-5.08-1.59a7.71,7.71,0,0,0-4.29,1.56,19.11,19.11,0,0,0-6-1.56,12.12,12.12,0,0,0-6.18,1.35,20.46,20.46,0,0,0-7.62-1.09c-2.46.2-4.68,2.86-5.08,2.66C21,72.28,12.79,68.13,12.34,64c-.37-3.38,9.43-2.52,12.17-4.52,4.21-3.08,9.49-4.27,14.67-4.85S49.61,54,54.7,52.87C56,55.31,59.12,47.41,62.19,51.42Z"/><path class="cls-1" d="M22.79,69.33c-.83.9.08-.15.5-.58s12.15.43,12.15.43h0s19.77-5.59,20.34-2.58l6.92-32.1L.21,51.64l1.58,7.75c1.83,1.12,10.47,6.16,20.1,11.74A3.57,3.57,0,0,1,22.79,69.33Z"/><path class="cls-2" d="M4.48,53.07l27.76,15.6C34,68,35.5,66.61,37.5,67a4,4,0,0,1,2.43-.23,2.21,2.21,0,0,0-.33-.06c.94,0,1.95-.42,2.87,0a6.69,6.69,0,0,1,5.59,1.43,2.24,2.24,0,0,1,.58.14c1.5-.25,3.28-.53,4.65.21A3.72,3.72,0,0,1,56.83,70l6-23.79.1-10.24Z"/><polygon class="cls-7" points="37.71 52.39 37.07 36.73 39.15 52.6 37.71 52.39"/><polygon class="cls-8" points="36.39 38.71 36.5 37.88 35.88 37.86 36.11 37.11 36.45 36.47 36.24 35.71 36.92 35 37.48 35.92 37.33 37.03 37.61 37.69 37.84 38.35 37.65 39.03 36.39 38.71"/><path class="cls-3" d="M21.91,71.63a73.16,73.16,0,0,1,2-7.08c.27-.87,3.85-1.37,5.46-1.47,1.84-.11,5.7.39,6.09,1.28-.62-1.22,3.77-2.4,5.76-2.55,2.4-.19,5.86.66,6.53,1.79-.9-1.11,7.22-4.2,9.22-1.73.15.18-.1,8.36-.05,8.51a9.43,9.43,0,0,0-8.63-.47,24.26,24.26,0,0,0-7.4-.87c-4.13.17-4.9,1.32-4.9,1.32s-2.32-1.23-7.23-1C23.61,69.55,22.54,71.56,21.91,71.63Z"/><path class="cls-9" d="M14.11,5.58A120.74,120.74,0,0,0,23.5,42.8a48.8,48.8,0,0,1,14.82-6.49"/><path class="cls-9" d="M42.16,9c2.39,7.85,4.8,15.75,8.55,23.05a9.08,9.08,0,0,0,2.21,3.07,3.41,3.41,0,0,0,3.56.58c1.38-.72,1.79-2.48,2-4a53.21,53.21,0,0,0-5-29.47"/><path class="cls-9" d="M66.43,81.59C68.72,57.49,71,33.37,71.55,9.17l7.19,63.32c3.69-22.16,1.78-45.37,9-66.63"/><path class="cls-9" d="M98,14.12c1-.63.68-2.42-.42-2.91a2.88,2.88,0,0,0-3.21,1,8.53,8.53,0,0,0-1.4,3.3C89.58,28.41,86.13,41.76,88.07,55c.24,1.59.78,3.46,2.31,4,1.8.59,3.51-1.16,4.26-2.9s1.17-3.77,2.68-4.9"/><path class="cls-9" d="M106.46,8.39Q102.56,30,100.57,52"/><path class="cls-9" d="M101.11,38.89l8.47-7"/><path class="cls-9" d="M116.61,1.68a315.5,315.5,0,0,0-8.11,51.94"/><path class="cls-10" d="M84.18,82.13a10.25,10.25,0,0,0-11.05-4.06,10.55,10.55,0,0,0-1.74.6C66.75,80.74,58.59,89.54,59,96.86c.64,4.42-.87-7.88,11.27-12.2,1.41-.51,6.87,1,8.56.69,1.1-.21,5.37-2.21,5.32-3.19A0,0,0,0,0,84.18,82.13Z"/><path class="cls-11" d="M88.86,84a7.42,7.42,0,0,0-.81-1.18c-2.11-2.48-5.45-2.7-8.49-.39l0,0c-.44.86,1.33,4.22,1.92,4.8a17.72,17.72,0,0,1,2.33,2.81c5.62,8.3,2.71,18.48,5,14.76C92.12,98.41,90.83,87.55,88.86,84Z"/><path class="cls-11" d="M72.91,80.65a6.69,6.69,0,0,0-1.15.18c-3.19.78-10,5.57-11.38,10.5-.64,3,3.14-3.57,11.23-4.88a16.91,16.91,0,0,1,3-.23c.69,0,3.65-.77,3.84-1.43,0,0,0,0,0,0A5.17,5.17,0,0,0,72.91,80.65Z"/><path class="cls-12" d="M76.14,84.43a39.9,39.9,0,0,1-7.5,3.88c-18.06,7-35.44,1.72-36.92-.56-2.93,7.86,12.36,22.31,37.13,14.8a46.85,46.85,0,0,0,17-8.81,42.26,42.26,0,0,0-5-3.57C79.56,89.4,75.48,85.32,76.14,84.43Z"/><path class="cls-13" d="M93.82,76.34a27.06,27.06,0,0,0-5.69.2,12.79,12.79,0,0,0-2.68.57c-.52.18-1,.37-1.53.56a49.93,49.93,0,0,1-7.75,6.74,17.78,17.78,0,0,1,16.14,2,35.8,35.8,0,0,0,4.28-9.88C95.67,76.46,94.73,76.41,93.82,76.34Z"/><path class="cls-14" d="M38,92.58c7.24,4.17,10.57,7.51,19.06,6.94s18.44-4.85,25-9.94"/><path class="cls-15" d="M76.15,84.42h0l0,0Z"/><path class="cls-10" d="M94.1,87.9a15.9,15.9,0,0,0-1.79-1.47,17.81,17.81,0,0,0-16.14-2l0,0c-.66.88,3.42,5,4.66,5.74a38.54,38.54,0,0,1,5,3.58C98.23,104.1,94.93,115,98.4,111.21,103.38,104.66,98.6,92.25,94.1,87.9Z"/><path class="cls-16" d="M31.61,87.82a3.55,3.55,0,0,0-.12,2.36l.7-1.22.94.38A2,2,0,0,0,31.61,87.82Z"/><path class="cls-17" d="M84.36,77.82a2.5,2.5,0,0,0,1.55.64,25.08,25.08,0,0,0,4.9.24,11,11,0,0,0,2.75-.43,4.86,4.86,0,0,0,2.28-1.46,24.53,24.53,0,0,0-8.8.1A6.74,6.74,0,0,0,84.36,77.82Z"/><ellipse class="cls-13" cx="89.75" cy="77.5" rx="0.31" ry="0.15" transform="translate(-1.33 1.57) rotate(-0.99)"/><line class="cls-18" x1="90.38" y1="77.33" x2="93.02" y2="76.94"/><line class="cls-18" x1="90.11" y1="77.74" x2="91.13" y2="78.26"/><line class="cls-18" x1="89.24" y1="77.74" x2="87.69" y2="78.44"/><line class="cls-18" x1="89.08" y1="77.45" x2="85.64" y2="77.69"/><line class="cls-18" x1="89.33" y1="77.21" x2="88.9" y2="76.93"/><line class="cls-18" x1="89.75" y1="77.14" x2="89.91" y2="76.78"/></g></g></svg>