<svg xmlns="http://www.w3.org/2000/svg" viewBox="0 0 285.07 242.06"><defs><style>.cls-1{fill:#d6ae92;}.cls-2{fill:#f4deba;}.cls-3{fill:#fce0d2;}.cls-4{fill:#eac2a4;}</style></defs><g id="Layer_2" data-name="Layer 2"><g id="Layer_20" data-name="Layer 20"><path class="cls-1" d="M207.05,13.88c3.11-6.29,4.41-11.83,12.19-8.65,2.94,1.2,8.09,6.26,7.91,9.63-.45,8-15.17,13.6-21.7,11"/><path class="cls-1" d="M122.27,12.24C125.39,6,126.69.41,134.46,3.59c2.94,1.2,8.1,6.26,7.91,9.63-.44,8-15.17,13.6-21.7,11"/><path class="cls-2" d="M7.65,117.73C57.11,63.49,75.69,28.15,113,22c24-4,86.13-1.93,99.76,3,32.56,11.85,71.65,87.26,72.26,108.11.79,27.06-6.71,58.35-27.07,79.51-26.44,27.5-85.14,30.67-125.89,29.12-32.9-1.25-100.58.15-111.27-17C20.79,224.71-15.33,142.94,7.65,117.73Z"/><path class="cls-1" d="M67.07,86.68c-5.69,15.84-6.73,40.07,10.58,52.13,46.12,32.13,105.41,11.34,122.53-4.6s11.8-44.34,5.48-63.3C194,36,90,22.66,67.07,86.68Z"/><path class="cls-3" d="M62.83,79.77c-5.68,15.85-6.72,40.07,10.59,52.13C119.54,164,178.83,143.24,196,127.3S207.75,83,201.42,64C189.77,29.08,85.79,15.75,62.83,79.77Z"/><g id="_Radial_Repeat_" data-name="&lt;Radial Repeat&gt;"><path class="cls-4" d="M88.79,90c1.43.68,3.68,1,5-.49,3.44-4,2.06-9.74.73-11.49s-4-1.53-5.86-1.12C85.26,77.66,83,87.25,88.79,90Z"/></g><g id="_Radial_Repeat_2" data-name="&lt;Radial Repeat&gt;"><path class="cls-4" d="M94.14,68.26c.89,1.3,2.68,2.71,4.55,2.06,5-1.75,6.65-7.41,6.38-9.59s-2.73-3.33-4.52-3.89C97.25,55.81,90.52,63,94.14,68.26Z"/></g><g id="_Radial_Repeat_3" data-name="&lt;Radial Repeat&gt;"><path class="cls-4" d="M109.63,52.11c.13,1.57,1,3.69,2.92,4,5.19,1,9.46-3.09,10.32-5.11s-.7-4.25-2-5.63C118.55,42.87,109.13,45.74,109.63,52.11Z"/></g><g id="_Radial_Repeat_4" data-name="&lt;Radial Repeat&gt;"><path class="cls-4" d="M131.13,45.86c-.68,1.43-1,3.68.5,5,4,3.44,9.74,2.06,11.49.74s1.52-4,1.11-5.87C143.48,42.33,133.89,40.1,131.13,45.86Z"/></g><g id="_Radial_Repeat_5" data-name="&lt;Radial Repeat&gt;"><path class="cls-4" d="M152.88,51.21c-1.31.89-2.72,2.68-2.06,4.55,1.75,5,7.41,6.65,9.59,6.38s3.33-2.73,3.89-4.52C165.33,54.32,158.14,47.59,152.88,51.21Z"/></g><g id="_Radial_Repeat_6" data-name="&lt;Radial Repeat&gt;"><path class="cls-4" d="M169,66.7c-1.57.13-3.69,1-4.06,2.92-1,5.19,3.09,9.46,5.12,10.32s4.25-.7,5.63-2C178.26,75.62,175.4,66.21,169,66.7Z"/></g><g id="_Radial_Repeat_7" data-name="&lt;Radial Repeat&gt;"><path class="cls-4" d="M175.28,88.2c-1.43-.68-3.69-1-5,.5-3.44,4-2.05,9.74-.73,11.49s4,1.53,5.87,1.11C178.81,100.55,181,91,175.28,88.2Z"/></g><g id="_Radial_Repeat_8" data-name="&lt;Radial Repeat&gt;"><path class="cls-4" d="M169.93,110c-.89-1.31-2.68-2.72-4.55-2.06-5,1.75-6.65,7.41-6.38,9.59s2.73,3.33,4.52,3.89C166.82,122.4,173.55,115.21,169.93,110Z"/></g><g id="_Radial_Repeat_9" data-name="&lt;Radial Repeat&gt;"><path class="cls-4" d="M154.43,126.1c-.12-1.57-1-3.69-2.91-4.06-5.19-1-9.47,3.09-10.32,5.12s.7,4.25,2,5.63C145.51,135.33,154.93,132.47,154.43,126.1Z"/></g><g id="_Radial_Repeat_10" data-name="&lt;Radial Repeat&gt;"><path class="cls-4" d="M132.93,132.35c.68-1.43,1-3.69-.49-5-4-3.44-9.74-2.05-11.49-.73s-1.53,4-1.12,5.87C120.59,135.88,130.18,138.11,132.93,132.35Z"/></g><g id="_Radial_Repeat_11" data-name="&lt;Radial Repeat&gt;"><path class="cls-4" d="M111.19,127c1.31-.89,2.72-2.68,2.06-4.55-1.75-5-7.41-6.65-9.59-6.38s-3.33,2.73-3.89,4.52C98.74,123.89,105.93,130.62,111.19,127Z"/></g><g id="_Radial_Repeat_12" data-name="&lt;Radial Repeat&gt;"><path class="cls-4" d="M95,111.5c1.58-.12,3.7-1,4.06-2.91,1-5.19-3.09-9.47-5.11-10.32s-4.25.7-5.63,2C85.8,102.58,88.67,112,95,111.5Z"/></g><path class="cls-4" d="M102.91,29c-2-8.19-6.85-19.75.18-26,5.3-4.7,14.16-3.86,17.45,1.89,2.11,3.7,3.72,19.05,1.65,23.2C118.38,35.74,102.91,29,102.91,29Z"/><path class="cls-4" d="M190.18,31.11c-2-8.75-6.85-21.1.18-27.75,5.3-5,14.16-4.12,17.44,2,2.12,4,3.73,20.37,1.65,24.8C205.65,38.31,190.18,31.11,190.18,31.11Z"/></g></g></svg>