<svg xmlns="http://www.w3.org/2000/svg" viewBox="0 0 171.3 108.93"><defs><style>.cls-1{fill:#fff;}</style></defs><g id="Layer_2" data-name="Layer 2"><g id="Layer_8" data-name="Layer 8"><path class="cls-1" d="M31.21,18.29A22.39,22.39,0,0,0,11.5,15.05a21.44,21.44,0,0,0-8.74,5C1.39,21.38-.06,23,0,25a4.38,4.38,0,0,0,2.73,3.72,13.58,13.58,0,0,0,5.16,1c2.28.14,4.55.27,6.82.49,4.36.42,8.87,1.2,12.81,3.21a18.9,18.9,0,0,1,7.91,7.17,10.49,10.49,0,0,1,1.62,5.19c0,1.06-1.17,1.61-2,2.15s-1.79,1.18-2.72,1.72a45.89,45.89,0,0,1-13.6,5.26,26.43,26.43,0,0,1-7.24.81c-2-.14-4.43-1.25-4.37-3.59,0-1.93-2.95-1.93-3,0-.12,4.35,4.19,6.57,8,6.62a39.31,39.31,0,0,0,13-2.51,48.55,48.55,0,0,0,12-6.09c1.8-1.27,3.09-2.59,2.9-4.94a15,15,0,0,0-1.6-5.35c-3.7-7.42-11.94-11-19.72-12.16-2.31-.35-4.63-.57-7-.73a41.53,41.53,0,0,1-6.51-.53c-1.72-.41-2.92-1.27-1.58-3A15.12,15.12,0,0,1,7.76,20a19.73,19.73,0,0,1,21.94.91c1.53,1.17,3-1.43,1.51-2.59Z"/><path class="cls-1" d="M40.73,35.72a82.92,82.92,0,0,0,1.68,25.76c.42,1.88,3.31,1.08,2.89-.8a80.53,80.53,0,0,1-1.57-25c.18-1.92-2.82-1.91-3,0Z"/><path class="cls-1" d="M42.59,36.12l8.83-2.2a27.09,27.09,0,0,1,4.15-1A2.1,2.1,0,0,1,57.81,34c2.2,4.26-5,7.73-7.86,9a23.9,23.9,0,0,1-4.21,1.4c-.88.21-2,.41-2.59-.38A1.52,1.52,0,0,0,41,44a1.55,1.55,0,0,0,0,2.12c1.95,2.47,5.8,1.21,8.22.34a27.79,27.79,0,0,0,8.62-4.77C60.12,39.83,61.7,37,61,34a5.54,5.54,0,0,0-2.16-3.23A6.14,6.14,0,0,0,54,30.2c-4.1.85-8.15,2-12.21,3-1.87.46-1.08,3.36.8,2.89Z"/><path class="cls-1" d="M41.72,45.56V43.68a1.52,1.52,0,0,0-.44-1.06,1.11,1.11,0,0,0-.48-.31,1.27,1.27,0,0,0-.58-.13,1.54,1.54,0,0,0-1.06.44,1.58,1.58,0,0,0-.44,1.06v1.88a1.54,1.54,0,0,0,.44,1.06,1.14,1.14,0,0,0,.48.31,1.08,1.08,0,0,0,.58.13,1.5,1.5,0,0,0,1.06-.44,1.54,1.54,0,0,0,.44-1.06Z"/><path class="cls-1" d="M65.31,30.08l.91,15c.11,1.92,3.11,1.93,3,0l-.91-15c-.12-1.92-3.12-1.93-3,0Z"/><path class="cls-1" d="M65,20.69v1.87a1.5,1.5,0,0,0,.44,1.06,1,1,0,0,0,.48.31,1.06,1.06,0,0,0,.58.13,1.47,1.47,0,0,0,1.06-.44A1.54,1.54,0,0,0,68,22.56V20.69a1.59,1.59,0,0,0-.44-1.07,1.21,1.21,0,0,0-.49-.31,1.11,1.11,0,0,0-.57-.12,1.49,1.49,0,0,0-1.06.43A1.59,1.59,0,0,0,65,20.69Z"/><path class="cls-1" d="M75,1.91c-.39,14.42-.7,29,2.67,43.14.45,1.88,3.34,1.09,2.9-.79-3.31-13.87-3-28.2-2.57-42.35,0-1.93-3-1.93-3,0Z"/><path class="cls-1" d="M84.35,2.85c-.29,12.88-.51,26.08,3.69,38.43.62,1.82,3.52,1,2.9-.79-4.13-12.11-3.88-25-3.59-37.64.05-1.93-2.95-1.93-3,0Z"/><path class="cls-1" d="M120.39,18.34V39.46a1.5,1.5,0,0,0,3,0V18.34a1.5,1.5,0,0,0-3,0Z"/><path class="cls-1" d="M115.79,31.17a40.51,40.51,0,0,0,14.94-3,1.54,1.54,0,0,0,1-1.85,1.51,1.51,0,0,0-1.84-1.05,38.14,38.14,0,0,1-14.14,2.86,1.5,1.5,0,0,0,0,3Z"/><path class="cls-1" d="M133.36,1.45l1.25,37.44,2.95-.4a21.23,21.23,0,0,1-.31-8.1,9,9,0,0,1,.93-3.31c.76-1.17,2-.48,2.88.15a11.42,11.42,0,0,1,4.61,10.87c-.3,1.88,2.59,2.7,2.89.79.9-5.71-1.77-12.64-7.4-15a4.31,4.31,0,0,0-4.42.37A6.44,6.44,0,0,0,134.69,28a24.69,24.69,0,0,0,0,11.31,1.51,1.51,0,0,0,3-.4L136.36,1.45c-.06-1.93-3.06-1.94-3,0Z"/><path class="cls-1" d="M132.17,27.83l2.35-.92a1.23,1.23,0,0,0,.52-.27,1,1,0,0,0,.38-.42,1.49,1.49,0,0,0,.15-1.15,1.46,1.46,0,0,0-.69-.9,1.41,1.41,0,0,0-1.15-.15l-2.36.91a1.26,1.26,0,0,0-.51.27,1.18,1.18,0,0,0-.38.42,1.57,1.57,0,0,0-.16,1.16,1.59,1.59,0,0,0,.69.9,1.52,1.52,0,0,0,1.16.15Z"/><path class="cls-1" d="M157.09,31.56l8,0c2,0,5.36.7,6-1.83.49-1.85-.29-4.25-1.09-5.91a9.08,9.08,0,0,0-3.92-4.16c-3.25-1.65-7.64-.91-9.71,2.24-1.26,1.93-1.45,4.61-1.75,6.83a16.46,16.46,0,0,0,.28,7.09,9.53,9.53,0,0,0,3.93,5.41c2.28,1.4,5,1.27,7.56,1a1.54,1.54,0,0,0,1.5-1.5,1.51,1.51,0,0,0-1.5-1.5,11.75,11.75,0,0,1-5.18-.17,5.55,5.55,0,0,1-2.93-2.79c-1.63-3.16-.82-7.11-.15-10.42.28-1.42.68-2.72,2-3.48a4.84,4.84,0,0,1,3.36-.48c2.73.58,4.31,3.39,4.65,6a6.4,6.4,0,0,0,.05,1.1l.47-.41h-.26a2.93,2.93,0,0,0-1,0h-3.33l-7.06,0a1.5,1.5,0,0,0,0,3Z"/><path class="cls-1" d="M79.09,70.44v30a1.5,1.5,0,0,0,3,0v-30a1.5,1.5,0,0,0-3,0Z"/><path class="cls-1" d="M72.61,83.2H91.85a1.5,1.5,0,0,0,0-3H72.61a1.5,1.5,0,0,0,0,3Z"/><path class="cls-1" d="M99.85,85.32c3.1.34,6.23.85,9.34,1,2.65.14,4-2.43,3.7-4.8-.57-5.31-6.41-6.85-10.84-5.48a8.4,8.4,0,0,0-5.56,4.42,13.54,13.54,0,0,0-.8,3.94c-.17,1.53-.32,3.07-.35,4.62-.07,4.91,1.36,10.32,5.77,13.09,3.82,2.4,14.12,3.13,13.16-3.85a1.52,1.52,0,0,0-1.85-1.05,1.55,1.55,0,0,0-1,1.85c.22,1.65-2.67,1.78-3.67,1.78a9.66,9.66,0,0,1-5.24-1.42c-2.92-1.94-4-5.7-4.11-9a40.16,40.16,0,0,1,.33-6c.21-1.93.52-3.57,2.28-4.64,2.48-1.5,7.14-2.22,8.64,1a2.72,2.72,0,0,1,.22,2.07c-.36.9-1.74.39-2.53.3l-7.45-.8c-1.91-.2-1.9,2.8,0,3Z"/><path class="cls-1" d="M133.61,81.72c-2.23-.2-4.48-.52-6.72-.6a4,4,0,0,0-4,2.93,35,35,0,0,0-2,12.72c.06,3.13.37,7.82,4.1,8.79a5.19,5.19,0,0,0,4.88-1.58,10.13,10.13,0,0,0,2.25-5.15c1-5,2-10,1.7-15.15a1.5,1.5,0,0,0-3,0A95.38,95.38,0,0,0,133.19,106c.42,1.88,3.32,1.09,2.89-.8a92.28,92.28,0,0,1-2.28-21.54h-3a54.64,54.64,0,0,1-1.43,13.54c-.34,1.71-.57,4-2.11,5s-2.5,0-2.94-1.42a18.31,18.31,0,0,1-.45-5.58,33.67,33.67,0,0,1,.74-6.4,34.17,34.17,0,0,1,.89-3.3c.24-.76.34-1.44,1.21-1.46a57.22,57.22,0,0,1,6.9.61c1.93.18,1.91-2.82,0-3Z"/><path class="cls-1" d="M151.74,90.65a46.63,46.63,0,0,1,4.5-27.8c.87-1.72-1.72-3.24-2.59-1.52a50.18,50.18,0,0,0-4.8,30.12c.29,1.9,3.18,1.09,2.89-.8Z"/><path class="cls-1" d="M153.67,102.08a11.11,11.11,0,0,0-7.1-4.45,1.52,1.52,0,0,0-1.9,1.45,11,11,0,0,0,7.94,9.8,1.55,1.55,0,0,0,1.85-1l2.38-6.12,1.22-3.13a10,10,0,0,0,.94-3c.13-2.5-2.9-3.37-4.57-1.83a5.46,5.46,0,0,0-1.32,2.61l-.87,3.1c-.33,1.18-.64,2.37-1,3.55a2.69,2.69,0,0,1-.39.92l-.07.11c0-.05,0,0,0,0s-.07.08,0,0-.17.2-.07.05.38,0,0,0l1.45,1.11a38.64,38.64,0,0,0-3.11-6.91,1.5,1.5,0,0,0-2.59,1.51,34.81,34.81,0,0,1,2.81,6.19,1.54,1.54,0,0,0,1.44,1.1c2.51.08,3.25-2.62,3.79-4.55l1-3.58L156,97a3.3,3.3,0,0,1,.39-1c.28-.39,0,0,0,0,.19,0,.21,0,.08,0a.43.43,0,0,1-.37-.17c-.23-.23-.07-.42-.18-.13s-.18.51-.27.76l-1.35,3.47-2.8,7.16,1.85-1a8,8,0,0,1-5.74-6.91l-1.9,1.44a8.19,8.19,0,0,1,5.31,3.08,1.53,1.53,0,0,0,2,.53,1.5,1.5,0,0,0,.54-2Z"/></g></g></svg>