<svg xmlns="http://www.w3.org/2000/svg" viewBox="0 0 174.62 111.78"><defs><style>.cls-1{fill:#fff;}.cls-2{fill:#886c43;}.cls-3{fill:#af8c62;}.cls-4{fill:#ced3d8;}</style></defs><g id="Layer_2" data-name="Layer 2"><g id="Layer_8" data-name="Layer 8"><path class="cls-1" d="M172.93,37.79c-7.56-13.5-34-5.15-34-5.15,3.17-11.77,6.29-22.08,6.29-22.08S74.83-13.2.07,10.56c0,0,0,.16,0,.48C-.14,17.33-1.28,83.89,35.5,111.78l56.25-.07c11.54,0,22.39-9.61,26.19-15.67.12-.19.24-.38.34-.56,0,0,8.72,2,22.09-3.47C155.67,85.79,181.47,53.06,172.93,37.79ZM125.76,82.34s8.37-24.72,16-34.49a11.45,11.45,0,0,1,4.05-3.62c6.36-2.69,14.09-1.81,15,6.38.75,6.4-6,15.79-14.09,22.78C139.26,79.9,130.59,84.34,125.76,82.34Z"/><path class="cls-2" d="M118.28,14.5c-13.91-5-89.61-6.16-94.73,1.88C28.19,20.62,117.44,22.83,118.28,14.5Z"/><path class="cls-3" d="M77.25,14.62c-5.6-2-36.1-2.48-38.16.76C41,17.09,76.91,18,77.25,14.62Z"/><path class="cls-3" d="M99.33,14.65c-2.25-1.38-14.47-1.71-15.3.52C84.78,16.35,99.19,17,99.33,14.65Z"/><path class="cls-4" d="M117.94,96c-3.8,6.06-14.65,15.67-26.19,15.67l-56.25.07C-1.28,83.89-.14,17.33.05,11a65.26,65.26,0,0,0,26.77,14.1c20.57,5.41,66.38,3.6,66.38,3.6S77.08,82.23,117.94,96Z"/><path class="cls-4" d="M150.17,71.36a16.85,16.85,0,0,1-3.38,2c8.08-7,14.84-16.38,14.09-22.78-1-8.19-8.69-9.07-15-6.38a11.45,11.45,0,0,0-4.05,3.62,13.25,13.25,0,0,1,6.88-8.33c4.59-2.53,14,.54,15.62,5.83C166,51,164.86,60.62,150.17,71.36Z"/></g></g></svg>